SplineFontDB: 3.0
FontName: Baskerville
FullName: Baskerville
FamilyName: Baskerville
Weight: Book
Copyright: Digitized data copyright Monotype Typography, Ltd 1991-1997. All rights reserved. Monotype Baskervillea is a trademark of Monotype Typography, Ltd which may be registered in certain jurisdictions.
Version: 10.0d1e1
ItalicAngle: 0
UnderlinePosition: -256
UnderlineWidth: 102
Ascent: 1638
Descent: 410
InvalidEm: 0
sfntRevision: 0x00010000
LayerCount: 2
Layer: 0 1 "Back" 1
Layer: 1 1 "Fore" 0
XUID: [1021 497 124214582 14110304]
StyleMap: 0x0040
FSType: 4
OS2Version: 3
OS2_WeightWidthSlopeOnly: 0
OS2_UseTypoMetrics: 0
CreationTime: 704144217
ModificationTime: 1528057246
PfmFamily: 17
TTFWeight: 400
TTFWidth: 5
LineGap: 0
VLineGap: 0
Panose: 2 2 5 2 7 4 1 2 3 3
OS2TypoAscent: 1376
OS2TypoAOffset: 0
OS2TypoDescent: -504
OS2TypoDOffset: 0
OS2TypoLinegap: 311
OS2WinAscent: 1839
OS2WinAOffset: 0
OS2WinDescent: 504
OS2WinDOffset: 0
HheadAscent: 1839
HheadAOffset: 0
HheadDescent: -504
HheadDOffset: 0
OS2SubXSize: 1434
OS2SubYSize: 1331
OS2SubXOff: 0
OS2SubYOff: 176
OS2SupXSize: 1434
OS2SupYSize: 1331
OS2SupXOff: 0
OS2SupYOff: 482
OS2StrikeYSize: 102
OS2StrikeYPos: 511
OS2CapHeight: 1370
OS2XHeight: 819
OS2FamilyClass: 513
OS2Vendor: 'MONO'
OS2CodePages: 2000019f.4f010000
OS2UnicodeRanges: 80000067.00000000.00000000.00000000
Lookup: 4 0 0 "<27,0> Canonical Decomposition in Latin lookup 0" { "<27,0> Canonical Decomposition in Latin lookup 0 subtable"  } [<27,0> ('latn' <'dflt' > ) ]
Lookup: 4 0 0 "<27,0> Canonical Decomposition in Latin lookup 1" { "<27,0> Canonical Decomposition in Latin lookup 1 subtable"  } [<27,0> ('latn' <'dflt' > ) ]
Lookup: 4 0 0 "<27,0> Canonical Decomposition in Latin lookup 2" { "<27,0> Canonical Decomposition in Latin lookup 2 subtable"  } [<27,0> ('latn' <'dflt' > ) ]

StartChar: at
Encoding: 64 64 0
Width: 1877
Flags: W
LayerCount: 2
Fore
SplineSet
1408 958 m 1,0,-1
 1291 559 l 2,1,2
 1198 241 1198 241 1198 181 c 0,3,4
 1198 151 1198 151 1218 127 c 128,-1,5
 1238 103 1238 103 1274 103 c 0,6,7
 1355 103 1355 103 1457.5 183.5 c 128,-1,8
 1560 264 1560 264 1628.5 424 c 128,-1,9
 1697 584 1697 584 1697 756 c 0,10,11
 1697 1022 1697 1022 1516.5 1196.5 c 128,-1,12
 1336 1371 1336 1371 1049 1371 c 0,13,14
 810 1371 810 1371 618.5 1247 c 128,-1,15
 427 1123 427 1123 309 900 c 128,-1,16
 191 677 191 677 191 414 c 0,17,18
 191 64 191 64 411.5 -158.5 c 128,-1,19
 632 -381 632 -381 968 -381 c 0,20,21
 1169 -381 1169 -381 1337 -303.5 c 128,-1,22
 1505 -226 1505 -226 1610.5 -100 c 128,-1,23
 1716 26 1716 26 1778 172 c 1,24,-1
 1836 172 l 1,25,26
 1751 -101 1751 -101 1509 -271.5 c 128,-1,27
 1267 -442 1267 -442 972 -442 c 0,28,29
 595 -442 595 -442 346 -189.5 c 128,-1,30
 97 63 97 63 97 440 c 0,31,32
 97 856 97 856 373 1139 c 128,-1,33
 649 1422 649 1422 1054 1422 c 0,34,35
 1369 1422 1369 1422 1563 1228 c 128,-1,36
 1757 1034 1757 1034 1757 735 c 0,37,38
 1757 456 1757 456 1598.5 243.5 c 128,-1,39
 1440 31 1440 31 1207 31 c 0,40,41
 1130 31 1130 31 1091 66 c 128,-1,42
 1052 101 1052 101 1052 170 c 0,43,44
 1052 228 1052 228 1070 315 c 1,45,46
 840 30 840 30 676 30 c 0,47,48
 592 30 592 30 543.5 102.5 c 128,-1,49
 495 175 495 175 495 265 c 0,50,51
 495 393 495 393 573.5 557 c 128,-1,52
 652 721 652 721 791.5 842.5 c 128,-1,53
 931 964 931 964 1048 964 c 0,54,55
 1117 964 1117 964 1159.5 929.5 c 128,-1,56
 1202 895 1202 895 1218 826 c 1,57,-1
 1251 936 l 1,58,-1
 1408 958 l 1,0,-1
1057 917 m 0,59,60
 926 917 926 917 789.5 680.5 c 128,-1,61
 653 444 653 444 653 296 c 0,62,63
 653 239 653 239 684.5 195 c 128,-1,64
 716 151 716 151 769 151 c 0,65,66
 864 151 864 151 976.5 272.5 c 128,-1,67
 1089 394 1089 394 1135.5 541 c 128,-1,68
 1182 688 1182 688 1182 770 c 0,69,70
 1182 832 1182 832 1149 874.5 c 128,-1,71
 1116 917 1116 917 1057 917 c 0,59,60
EndSplineSet
Substitution2: "<21,0> Lower Case Numbers lookup 8 subtable" at
Substitution2: "<21,1> Upper Case Numbers lookup 7 subtable" at
EndChar

StartChar: A
Encoding: 65 65 1
Width: 1387
Flags: W
LayerCount: 2
Fore
SplineSet
884 500 m 1,0,-1
 369 500 l 1,1,-1
 334 414 l 2,2,3
 256 227 256 227 256 170 c 0,4,5
 256 109 256 109 297.5 77.5 c 128,-1,6
 339 46 339 46 404 46 c 1,7,-1
 404 0 l 1,8,-1
 1 0 l 1,9,-1
 1 46 l 1,10,11
 91 60 91 60 135 109.5 c 128,-1,12
 179 159 179 159 241 318 c 0,13,14
 246 333 246 333 289 434 c 2,15,-1
 683 1375 l 1,16,-1
 722 1375 l 1,17,-1
 1175 298 l 1,18,-1
 1237 156 l 2,19,20
 1258 108 1258 108 1293.5 80.5 c 128,-1,21
 1329 53 1329 53 1400 46 c 1,22,-1
 1400 0 l 1,23,-1
 867 0 l 1,24,-1
 867 46 l 1,25,26
 965 46 965 46 999.5 60.5 c 128,-1,27
 1034 75 1034 75 1034 118 c 0,28,29
 1034 140 1034 140 988 249 c 2,30,-1
 884 500 l 1,0,-1
867 545 m 1,31,-1
 627 1123 l 1,32,-1
 388 545 l 1,33,-1
 867 545 l 1,31,-1
EndSplineSet
Substitution2: "<21,0> Lower Case Numbers lookup 8 subtable" A
Substitution2: "<21,1> Upper Case Numbers lookup 7 subtable" A
EndChar

StartChar: B
Encoding: 66 66 2
Width: 1259
Flags: W
LayerCount: 2
Fore
SplineSet
713 730 m 1,0,1
 944 713 944 713 1056 615 c 128,-1,2
 1168 517 1168 517 1168 370 c 0,3,4
 1168 242 1168 242 1092 149.5 c 128,-1,5
 1016 57 1016 57 897.5 28.5 c 128,-1,6
 779 0 779 0 580 0 c 2,7,-1
 48 0 l 1,8,-1
 48 46 l 1,9,-1
 100 46 l 2,10,11
 187 46 187 46 220.5 68 c 128,-1,12
 254 90 254 90 263 136.5 c 128,-1,13
 272 183 272 183 272 353 c 2,14,-1
 272 1013 l 2,15,16
 272 1178 272 1178 262.5 1226 c 128,-1,17
 253 1274 253 1274 222.5 1292 c 128,-1,18
 192 1310 192 1310 89 1310 c 2,19,-1
 63 1310 l 1,20,-1
 63 1356 l 1,21,-1
 286 1362 l 1,22,-1
 540 1370 l 1,23,24
 1096 1370 1096 1370 1096 1050 c 0,25,26
 1096 918 1096 918 1000.5 838 c 128,-1,27
 905 758 905 758 713 730 c 1,0,1
468 749 m 1,28,29
 493 748 493 748 510 748 c 0,30,31
 726 748 726 748 805 816 c 128,-1,32
 884 884 884 884 884 1036 c 0,33,34
 884 1142 884 1142 853 1200 c 128,-1,35
 822 1258 822 1258 760 1289.5 c 128,-1,36
 698 1321 698 1321 548 1321 c 0,37,38
 509 1321 509 1321 468 1318 c 1,39,-1
 468 749 l 1,28,29
468 700 m 1,40,-1
 468 398 l 2,41,42
 468 205 468 205 475 153 c 128,-1,43
 482 101 482 101 512.5 74 c 128,-1,44
 543 47 543 47 633 47 c 0,45,46
 793 47 793 47 873 129 c 128,-1,47
 953 211 953 211 953 375 c 0,48,49
 953 543 953 543 862.5 622.5 c 128,-1,50
 772 702 772 702 544 702 c 0,51,52
 508 702 508 702 468 700 c 1,40,-1
EndSplineSet
Substitution2: "<21,0> Lower Case Numbers lookup 8 subtable" B
Substitution2: "<21,1> Upper Case Numbers lookup 7 subtable" B
EndChar

StartChar: C
Encoding: 67 67 3
Width: 1472
Flags: W
LayerCount: 2
Fore
SplineSet
1294 509 m 1,0,-1
 1337 509 l 1,1,-1
 1337 34 l 1,2,-1
 1294 34 l 1,3,4
 1276 115 1276 115 1229 177 c 1,5,6
 1050 -25 1050 -25 772 -25 c 0,7,8
 478 -25 478 -25 291.5 161 c 128,-1,9
 105 347 105 347 105 653 c 0,10,11
 105 854 105 854 191 1031.5 c 128,-1,12
 277 1209 277 1209 431 1295 c 128,-1,13
 585 1381 585 1381 769 1381 c 0,14,15
 921 1381 921 1381 1044.5 1318.5 c 128,-1,16
 1168 1256 1168 1256 1229 1180 c 1,17,18
 1272 1265 1272 1265 1281 1356 c 1,19,-1
 1325 1356 l 1,20,-1
 1337 842 l 1,21,-1
 1294 842 l 1,22,23
 1249 1116 1249 1116 1110.5 1223 c 128,-1,24
 972 1330 972 1330 798 1330 c 0,25,26
 585 1330 585 1330 459.5 1157 c 128,-1,27
 334 984 334 984 334 662 c 0,28,29
 334 357 334 357 471 194.5 c 128,-1,30
 608 32 608 32 812 32 c 0,31,32
 921 32 921 32 1035 85 c 128,-1,33
 1149 138 1149 138 1215.5 264.5 c 128,-1,34
 1282 391 1282 391 1294 509 c 1,0,-1
EndSplineSet
Substitution2: "<21,0> Lower Case Numbers lookup 8 subtable" C
Substitution2: "<21,1> Upper Case Numbers lookup 7 subtable" C
EndChar

StartChar: D
Encoding: 68 68 4
Width: 1557
Flags: W
LayerCount: 2
Fore
SplineSet
48 1345 m 1,0,-1
 271 1356 l 2,1,2
 550 1370 550 1370 647 1370 c 0,3,4
 949 1370 949 1370 1118 1278 c 128,-1,5
 1287 1186 1287 1186 1369.5 1028.5 c 128,-1,6
 1452 871 1452 871 1452 665 c 0,7,8
 1452 516 1452 516 1407 392.5 c 128,-1,9
 1362 269 1362 269 1283.5 187.5 c 128,-1,10
 1205 106 1205 106 1101.5 63.5 c 128,-1,11
 998 21 998 21 905 10.5 c 128,-1,12
 812 0 812 0 643 0 c 2,13,-1
 42 0 l 1,14,-1
 42 46 l 1,15,-1
 98 46 l 2,16,17
 185 46 185 46 218.5 68 c 128,-1,18
 252 90 252 90 261.5 136.5 c 128,-1,19
 271 183 271 183 271 353 c 2,20,-1
 271 1007 l 2,21,22
 271 1169 271 1169 261.5 1216.5 c 128,-1,23
 252 1264 252 1264 221.5 1281.5 c 128,-1,24
 191 1299 191 1299 88 1299 c 2,25,-1
 48 1299 l 1,26,-1
 48 1345 l 1,0,-1
466 1317 m 1,27,-1
 466 411 l 2,28,29
 466 210 466 210 473.5 152 c 128,-1,30
 481 94 481 94 518.5 70.5 c 128,-1,31
 556 47 556 47 677 47 c 0,32,33
 854 47 854 47 968 95.5 c 128,-1,34
 1082 144 1082 144 1158.5 286.5 c 128,-1,35
 1235 429 1235 429 1235 650 c 0,36,37
 1235 822 1235 822 1190.5 957 c 128,-1,38
 1146 1092 1146 1092 1063 1176.5 c 128,-1,39
 980 1261 980 1261 879 1291.5 c 128,-1,40
 778 1322 778 1322 620 1322 c 0,41,42
 544 1322 544 1322 466 1317 c 1,27,-1
EndSplineSet
Substitution2: "<21,0> Lower Case Numbers lookup 8 subtable" D
Substitution2: "<21,1> Upper Case Numbers lookup 7 subtable" D
EndChar

StartChar: E
Encoding: 69 69 5
Width: 1280
Flags: W
LayerCount: 2
Fore
SplineSet
1169 422 m 1,0,-1
 1217 422 l 1,1,-1
 1188 0 l 1,2,-1
 65 0 l 1,3,-1
 65 46 l 1,4,-1
 93 46 l 2,5,6
 194 46 194 46 223.5 73 c 128,-1,7
 253 100 253 100 261 141.5 c 128,-1,8
 269 183 269 183 269 353 c 2,9,-1
 269 1018 l 2,10,11
 269 1173 269 1173 260.5 1222 c 128,-1,12
 252 1271 252 1271 221.5 1290.5 c 128,-1,13
 191 1310 191 1310 93 1310 c 1,14,-1
 93 1356 l 1,15,-1
 1062 1356 l 1,16,-1
 1094 1018 l 1,17,-1
 1047 1018 l 1,18,19
 1015 1160 1015 1160 968.5 1219.5 c 128,-1,20
 922 1279 922 1279 858 1294.5 c 128,-1,21
 794 1310 794 1310 652 1310 c 2,22,-1
 464 1310 l 1,23,-1
 464 741 l 1,24,-1
 608 741 l 2,25,26
 707 741 707 741 746.5 758 c 128,-1,27
 786 775 786 775 798.5 809.5 c 128,-1,28
 811 844 811 844 811 944 c 1,29,-1
 858 944 l 1,30,-1
 858 480 l 1,31,-1
 811 480 l 1,32,33
 811 593 811 593 792 631.5 c 128,-1,34
 773 670 773 670 736.5 681.5 c 128,-1,35
 700 693 700 693 613 693 c 2,36,-1
 464 693 l 1,37,-1
 464 372 l 2,38,39
 464 131 464 131 495 88.5 c 128,-1,40
 526 46 526 46 662 46 c 2,41,-1
 763 46 l 2,42,43
 870 46 870 46 939 73.5 c 128,-1,44
 1008 101 1008 101 1070.5 186.5 c 128,-1,45
 1133 272 1133 272 1169 422 c 1,0,-1
EndSplineSet
Substitution2: "<21,0> Lower Case Numbers lookup 8 subtable" E
Substitution2: "<21,1> Upper Case Numbers lookup 7 subtable" E
EndChar

StartChar: F
Encoding: 70 70 6
Width: 1131
Flags: W
LayerCount: 2
Fore
SplineSet
1111 1356 m 1,0,-1
 1122 1018 l 1,1,-1
 1075 1018 l 1,2,3
 1061 1129 1061 1129 1012.5 1201.5 c 128,-1,4
 964 1274 964 1274 911 1292 c 128,-1,5
 858 1310 858 1310 732 1310 c 2,6,-1
 467 1310 l 1,7,-1
 467 735 l 1,8,-1
 594 735 l 2,9,10
 717 735 717 735 757.5 776.5 c 128,-1,11
 798 818 798 818 798 943 c 1,12,-1
 848 943 l 1,13,-1
 848 465 l 1,14,-1
 798 465 l 1,15,16
 798 552 798 552 780.5 602.5 c 128,-1,17
 763 653 763 653 728.5 671.5 c 128,-1,18
 694 690 694 690 594 690 c 2,19,-1
 467 690 l 1,20,-1
 467 353 l 2,21,22
 467 193 467 193 475 143.5 c 128,-1,23
 483 94 483 94 515.5 70 c 128,-1,24
 548 46 548 46 641 46 c 2,25,-1
 687 46 l 1,26,-1
 687 0 l 1,27,-1
 57 0 l 1,28,-1
 57 46 l 1,29,-1
 99 46 l 2,30,31
 186 46 186 46 219.5 68 c 128,-1,32
 253 90 253 90 262.5 136.5 c 128,-1,33
 272 183 272 183 272 353 c 2,34,-1
 272 1018 l 2,35,36
 272 1180 272 1180 262.5 1227 c 128,-1,37
 253 1274 253 1274 222.5 1292 c 128,-1,38
 192 1310 192 1310 89 1310 c 2,39,-1
 65 1310 l 1,40,-1
 65 1356 l 1,41,-1
 1111 1356 l 1,0,-1
EndSplineSet
Substitution2: "<21,0> Lower Case Numbers lookup 8 subtable" F
Substitution2: "<21,1> Upper Case Numbers lookup 7 subtable" F
EndChar

StartChar: G
Encoding: 71 71 7
Width: 1579
Flags: W
LayerCount: 2
Fore
SplineSet
945 579 m 1,0,-1
 1530 579 l 1,1,-1
 1530 531 l 1,2,3
 1433 531 1433 531 1398.5 511.5 c 128,-1,4
 1364 492 1364 492 1353 446.5 c 128,-1,5
 1342 401 1342 401 1342 226 c 2,6,-1
 1342 82 l 1,7,8
 1318 86 1318 86 1299 86 c 0,9,10
 1222 86 1222 86 1097 39 c 0,11,12
 927 -25 927 -25 782 -25 c 0,13,14
 491 -25 491 -25 298 166.5 c 128,-1,15
 105 358 105 358 105 652 c 0,16,17
 105 943 105 943 289 1162 c 128,-1,18
 473 1381 473 1381 789 1381 c 0,19,20
 1061 1381 1061 1381 1239 1181 c 1,21,22
 1272 1251 1272 1251 1281 1332 c 1,23,-1
 1329 1332 l 1,24,-1
 1329 879 l 1,25,-1
 1281 879 l 1,26,27
 1252 1088 1252 1088 1122.5 1210 c 128,-1,28
 993 1332 993 1332 808 1332 c 0,29,30
 617 1332 617 1332 475 1190 c 128,-1,31
 333 1048 333 1048 333 686 c 0,32,33
 333 325 333 325 470 174.5 c 128,-1,34
 607 24 607 24 810 24 c 0,35,36
 914 24 914 24 999 66.5 c 128,-1,37
 1084 109 1084 109 1115 170 c 128,-1,38
 1146 231 1146 231 1146 324 c 0,39,40
 1146 433 1146 433 1131.5 469.5 c 128,-1,41
 1117 506 1117 506 1087 518.5 c 128,-1,42
 1057 531 1057 531 977 531 c 2,43,-1
 945 531 l 1,44,-1
 945 579 l 1,0,-1
EndSplineSet
Substitution2: "<21,0> Lower Case Numbers lookup 8 subtable" G
Substitution2: "<21,1> Upper Case Numbers lookup 7 subtable" G
EndChar

StartChar: H
Encoding: 72 72 8
Width: 1643
Flags: W
LayerCount: 2
Fore
SplineSet
1175 680 m 1,0,-1
 467 680 l 1,1,-1
 467 353 l 2,2,3
 467 193 467 193 475 143.5 c 128,-1,4
 483 94 483 94 515.5 70 c 128,-1,5
 548 46 548 46 639 46 c 2,6,-1
 674 46 l 1,7,-1
 674 0 l 1,8,-1
 64 0 l 1,9,-1
 64 46 l 1,10,-1
 99 46 l 2,11,12
 186 46 186 46 219.5 68 c 128,-1,13
 253 90 253 90 262.5 136.5 c 128,-1,14
 272 183 272 183 272 353 c 2,15,-1
 272 1018 l 2,16,17
 272 1180 272 1180 262.5 1227 c 128,-1,18
 253 1274 253 1274 222.5 1292 c 128,-1,19
 192 1310 192 1310 89 1310 c 2,20,-1
 64 1310 l 1,21,-1
 64 1356 l 1,22,-1
 674 1356 l 1,23,-1
 674 1310 l 1,24,-1
 649 1310 l 2,25,26
 550 1310 550 1310 519 1293.5 c 128,-1,27
 488 1277 488 1277 477.5 1232 c 128,-1,28
 467 1187 467 1187 467 1018 c 2,29,-1
 467 749 l 1,30,-1
 1175 749 l 1,31,-1
 1175 1018 l 2,32,33
 1175 1180 1175 1180 1166 1227 c 128,-1,34
 1157 1274 1157 1274 1126.5 1292 c 128,-1,35
 1096 1310 1096 1310 993 1310 c 2,36,-1
 957 1310 l 1,37,-1
 957 1356 l 1,38,-1
 1574 1356 l 1,39,-1
 1574 1310 l 1,40,-1
 1554 1310 l 2,41,42
 1454 1310 1454 1310 1423 1293.5 c 128,-1,43
 1392 1277 1392 1277 1381.5 1232 c 128,-1,44
 1371 1187 1371 1187 1371 1018 c 2,45,-1
 1371 353 l 2,46,47
 1371 193 1371 193 1378.5 143.5 c 128,-1,48
 1386 94 1386 94 1419 70 c 128,-1,49
 1452 46 1452 46 1543 46 c 2,50,-1
 1574 46 l 1,51,-1
 1574 0 l 1,52,-1
 957 0 l 1,53,-1
 957 46 l 1,54,-1
 1004 46 l 2,55,56
 1090 46 1090 46 1123.5 68 c 128,-1,57
 1157 90 1157 90 1166 136.5 c 128,-1,58
 1175 183 1175 183 1175 353 c 2,59,-1
 1175 680 l 1,0,-1
EndSplineSet
Substitution2: "<21,0> Lower Case Numbers lookup 8 subtable" H
Substitution2: "<21,1> Upper Case Numbers lookup 7 subtable" H
EndChar

StartChar: I
Encoding: 73 73 9
Width: 725
Flags: W
LayerCount: 2
Fore
SplineSet
53 1310 m 1,0,-1
 53 1356 l 1,1,-1
 673 1356 l 1,2,-1
 673 1310 l 1,3,-1
 644 1310 l 2,4,5
 544 1310 544 1310 513 1293.5 c 128,-1,6
 482 1277 482 1277 471.5 1232 c 128,-1,7
 461 1187 461 1187 461 1018 c 2,8,-1
 461 353 l 2,9,10
 461 193 461 193 468.5 143.5 c 128,-1,11
 476 94 476 94 508.5 70 c 128,-1,12
 541 46 541 46 633 46 c 2,13,-1
 673 46 l 1,14,-1
 673 0 l 1,15,-1
 53 0 l 1,16,-1
 53 46 l 1,17,-1
 93 46 l 2,18,19
 180 46 180 46 213.5 68 c 128,-1,20
 247 90 247 90 256 136.5 c 128,-1,21
 265 183 265 183 265 353 c 2,22,-1
 265 1018 l 2,23,24
 265 1180 265 1180 256 1227 c 128,-1,25
 247 1274 247 1274 216 1292 c 128,-1,26
 185 1310 185 1310 82 1310 c 2,27,-1
 53 1310 l 1,0,-1
EndSplineSet
Substitution2: "<21,0> Lower Case Numbers lookup 8 subtable" I
Substitution2: "<21,1> Upper Case Numbers lookup 7 subtable" I
EndChar

StartChar: J
Encoding: 74 74 10
Width: 725
Flags: W
LayerCount: 2
Fore
SplineSet
73 1356 m 1,0,-1
 703 1356 l 1,1,-1
 703 1310 l 1,2,-1
 669 1310 l 2,3,4
 569 1310 569 1310 538 1293.5 c 128,-1,5
 507 1277 507 1277 497 1232 c 128,-1,6
 487 1187 487 1187 487 1018 c 2,7,-1
 487 132 l 2,8,9
 487 -40 487 -40 473.5 -130 c 128,-1,10
 460 -220 460 -220 398 -305.5 c 128,-1,11
 336 -391 336 -391 232.5 -437 c 128,-1,12
 129 -483 129 -483 -8 -483 c 0,13,14
 -162 -483 -162 -483 -245 -426.5 c 128,-1,15
 -328 -370 -328 -370 -328 -292 c 0,16,17
 -328 -245 -328 -245 -298.5 -213 c 128,-1,18
 -269 -181 -269 -181 -226 -181 c 0,19,20
 -182 -181 -182 -181 -152.5 -210 c 128,-1,21
 -123 -239 -123 -239 -123 -281 c 0,22,23
 -123 -306 -123 -306 -135 -333 c 0,24,25
 -146 -357 -146 -357 -146 -369 c 0,26,27
 -146 -401 -146 -401 -108 -419 c 128,-1,28
 -70 -437 -70 -437 -14 -437 c 0,29,30
 100 -437 100 -437 178 -364.5 c 128,-1,31
 256 -292 256 -292 272 -193.5 c 128,-1,32
 288 -95 288 -95 288 132 c 2,33,-1
 288 1018 l 2,34,35
 288 1180 288 1180 278.5 1227 c 128,-1,36
 269 1274 269 1274 238.5 1292 c 128,-1,37
 208 1310 208 1310 105 1310 c 2,38,-1
 73 1310 l 1,39,-1
 73 1356 l 1,0,-1
EndSplineSet
Substitution2: "<21,0> Lower Case Numbers lookup 8 subtable" J
Substitution2: "<21,1> Upper Case Numbers lookup 7 subtable" J
EndChar

StartChar: K
Encoding: 75 75 11
Width: 1600
Flags: W
LayerCount: 2
Fore
SplineSet
468 666 m 1,0,-1
 882 1039 l 2,1,2
 1026 1168 1026 1168 1026 1223 c 0,3,4
 1026 1306 1026 1306 882 1310 c 1,5,-1
 882 1356 l 1,6,-1
 1393 1356 l 1,7,-1
 1393 1310 l 1,8,9
 1330 1309 1330 1309 1266.5 1283 c 128,-1,10
 1203 1257 1203 1257 1150 1215 c 128,-1,11
 1097 1173 1097 1173 953 1038 c 2,12,-1
 706 810 l 1,13,-1
 1214 297 l 2,14,15
 1388 120 1388 120 1447 83 c 128,-1,16
 1506 46 1506 46 1600 46 c 1,17,-1
 1600 0 l 1,18,-1
 896 0 l 1,19,-1
 896 46 l 1,20,-1
 923 46 l 2,21,22
 1037 46 1037 46 1065 65 c 128,-1,23
 1093 84 1093 84 1093 112 c 0,24,25
 1093 154 1093 154 948 299 c 2,26,-1
 565 685 l 1,27,-1
 468 600 l 1,28,-1
 468 353 l 2,29,30
 468 193 468 193 476 143.5 c 128,-1,31
 484 94 484 94 516.5 70 c 128,-1,32
 549 46 549 46 641 46 c 2,33,-1
 667 46 l 1,34,-1
 667 0 l 1,35,-1
 58 0 l 1,36,-1
 58 46 l 1,37,-1
 100 46 l 2,38,39
 187 46 187 46 220.5 68 c 128,-1,40
 254 90 254 90 263.5 136.5 c 128,-1,41
 273 183 273 183 273 353 c 2,42,-1
 273 1018 l 2,43,44
 273 1186 273 1186 262.5 1232 c 128,-1,45
 252 1278 252 1278 221 1294 c 128,-1,46
 190 1310 190 1310 76 1310 c 1,47,-1
 76 1356 l 1,48,-1
 676 1356 l 1,49,-1
 676 1310 l 1,50,-1
 651 1310 l 2,51,52
 551 1310 551 1310 520 1293.5 c 128,-1,53
 489 1277 489 1277 478.5 1232 c 128,-1,54
 468 1187 468 1187 468 1018 c 2,55,-1
 468 666 l 1,0,-1
EndSplineSet
Substitution2: "<21,0> Lower Case Numbers lookup 8 subtable" K
Substitution2: "<21,1> Upper Case Numbers lookup 7 subtable" K
EndChar

StartChar: L
Encoding: 76 76 12
Width: 1237
Flags: W
LayerCount: 2
Fore
SplineSet
1220 399 m 1,0,-1
 1210 0 l 1,1,-1
 58 0 l 1,2,-1
 58 46 l 1,3,-1
 98 46 l 2,4,5
 185 46 185 46 218.5 68 c 128,-1,6
 252 90 252 90 261.5 136.5 c 128,-1,7
 271 183 271 183 271 353 c 2,8,-1
 271 1018 l 2,9,10
 271 1180 271 1180 261.5 1227 c 128,-1,11
 252 1274 252 1274 221.5 1292 c 128,-1,12
 191 1310 191 1310 88 1310 c 2,13,-1
 58 1310 l 1,14,-1
 58 1356 l 1,15,-1
 709 1356 l 1,16,-1
 709 1310 l 1,17,-1
 649 1310 l 2,18,19
 549 1310 549 1310 518 1293.5 c 128,-1,20
 487 1277 487 1277 476.5 1232 c 128,-1,21
 466 1187 466 1187 466 1018 c 2,22,-1
 466 308 l 2,23,24
 466 161 466 161 474 124 c 128,-1,25
 482 87 482 87 517.5 66.5 c 128,-1,26
 553 46 553 46 670 46 c 2,27,-1
 773 46 l 2,28,29
 898 46 898 46 958.5 68 c 128,-1,30
 1019 90 1019 90 1073.5 164 c 128,-1,31
 1128 238 1128 238 1173 399 c 1,32,-1
 1220 399 l 1,0,-1
EndSplineSet
Substitution2: "<21,0> Lower Case Numbers lookup 8 subtable" L
Substitution2: "<21,1> Upper Case Numbers lookup 7 subtable" L
EndChar

StartChar: M
Encoding: 77 77 13
Width: 1899
Flags: W
LayerCount: 2
Fore
SplineSet
950 234 m 1,0,-1
 1444 1356 l 1,1,-1
 1860 1356 l 1,2,-1
 1860 1310 l 1,3,-1
 1810 1310 l 2,4,5
 1710 1310 1710 1310 1679 1293.5 c 128,-1,6
 1648 1277 1648 1277 1637.5 1232 c 128,-1,7
 1627 1187 1627 1187 1627 1018 c 2,8,-1
 1627 353 l 2,9,10
 1627 193 1627 193 1635 143.5 c 128,-1,11
 1643 94 1643 94 1675.5 70 c 128,-1,12
 1708 46 1708 46 1800 46 c 2,13,-1
 1860 46 l 1,14,-1
 1860 0 l 1,15,-1
 1212 0 l 1,16,-1
 1212 46 l 1,17,-1
 1260 46 l 2,18,19
 1346 46 1346 46 1379.5 68 c 128,-1,20
 1413 90 1413 90 1422.5 136.5 c 128,-1,21
 1432 183 1432 183 1432 353 c 2,22,-1
 1432 1216 l 1,23,-1
 895 0 l 1,24,-1
 848 0 l 1,25,-1
 307 1216 l 1,26,-1
 307 422 l 2,27,28
 307 259 307 259 317 200 c 128,-1,29
 327 141 327 141 379 96.5 c 128,-1,30
 431 52 431 52 525 46 c 1,31,-1
 525 0 l 1,32,-1
 40 0 l 1,33,-1
 40 46 l 1,34,35
 127 51 127 51 181.5 93.5 c 128,-1,36
 236 136 236 136 248 198 c 128,-1,37
 260 260 260 260 260 428 c 2,38,-1
 260 1018 l 2,39,40
 260 1180 260 1180 250.5 1227 c 128,-1,41
 241 1274 241 1274 210.5 1292 c 128,-1,42
 180 1310 180 1310 77 1310 c 2,43,-1
 40 1310 l 1,44,-1
 40 1356 l 1,45,-1
 453 1356 l 1,46,-1
 950 234 l 1,0,-1
EndSplineSet
Substitution2: "<21,0> Lower Case Numbers lookup 8 subtable" M
Substitution2: "<21,1> Upper Case Numbers lookup 7 subtable" M
EndChar

StartChar: N
Encoding: 78 78 14
Width: 1536
Flags: W
LayerCount: 2
Fore
SplineSet
1261 -31 m 1,0,-1
 302 1240 l 1,1,-1
 302 299 l 2,2,3
 302 182 302 182 313.5 145 c 128,-1,4
 325 108 325 108 379 77 c 128,-1,5
 433 46 433 46 541 46 c 1,6,-1
 541 0 l 1,7,-1
 35 0 l 1,8,-1
 35 46 l 1,9,10
 132 53 132 53 183 81.5 c 128,-1,11
 234 110 234 110 243.5 143 c 128,-1,12
 253 176 253 176 253 299 c 2,13,-1
 253 1018 l 2,14,15
 253 1174 253 1174 238.5 1227 c 128,-1,16
 224 1280 224 1280 192.5 1295 c 128,-1,17
 161 1310 161 1310 52 1310 c 1,18,-1
 52 1356 l 1,19,-1
 452 1356 l 1,20,-1
 1255 295 l 1,21,-1
 1255 1106 l 2,22,23
 1255 1196 1255 1196 1236.5 1232 c 128,-1,24
 1218 1268 1218 1268 1161 1289 c 128,-1,25
 1104 1310 1104 1310 1024 1310 c 1,26,-1
 1024 1356 l 1,27,-1
 1516 1356 l 1,28,-1
 1516 1310 l 1,29,30
 1430 1303 1430 1303 1380.5 1277 c 128,-1,31
 1331 1251 1331 1251 1317.5 1214.5 c 128,-1,32
 1304 1178 1304 1178 1304 1091 c 2,33,-1
 1304 -31 l 1,34,-1
 1261 -31 l 1,0,-1
EndSplineSet
Substitution2: "<21,0> Lower Case Numbers lookup 8 subtable" N
Substitution2: "<21,1> Upper Case Numbers lookup 7 subtable" N
EndChar

StartChar: O
Encoding: 79 79 15
Width: 1685
Flags: W
LayerCount: 2
Fore
SplineSet
105 687 m 0,0,1
 105 1001 105 1001 315 1191 c 128,-1,2
 525 1381 525 1381 839 1381 c 0,3,4
 1156 1381 1156 1381 1368.5 1193 c 128,-1,5
 1581 1005 1581 1005 1581 680 c 0,6,7
 1581 365 1581 365 1377.5 170 c 128,-1,8
 1174 -25 1174 -25 842 -25 c 0,9,10
 519 -25 519 -25 312 170 c 128,-1,11
 105 365 105 365 105 687 c 0,0,1
334 680 m 0,12,13
 334 353 334 353 464.5 189 c 128,-1,14
 595 25 595 25 856 25 c 0,15,16
 1085 25 1085 25 1218 189 c 128,-1,17
 1351 353 1351 353 1351 678 c 0,18,19
 1351 994 1351 994 1220 1162.5 c 128,-1,20
 1089 1331 1089 1331 840 1331 c 0,21,22
 595 1331 595 1331 464.5 1166.5 c 128,-1,23
 334 1002 334 1002 334 680 c 0,12,13
EndSplineSet
Substitution2: "<21,0> Lower Case Numbers lookup 8 subtable" O
Substitution2: "<21,1> Upper Case Numbers lookup 7 subtable" O
EndChar

StartChar: P
Encoding: 80 80 16
Width: 1152
Flags: W
LayerCount: 2
Fore
SplineSet
471 638 m 1,0,-1
 471 353 l 2,1,2
 471 193 471 193 478.5 143.5 c 128,-1,3
 486 94 486 94 519 70 c 128,-1,4
 552 46 552 46 643 46 c 2,5,-1
 688 46 l 1,6,-1
 688 0 l 1,7,-1
 67 0 l 1,8,-1
 67 46 l 1,9,-1
 103 46 l 2,10,11
 190 46 190 46 223.5 68 c 128,-1,12
 257 90 257 90 266 136.5 c 128,-1,13
 275 183 275 183 275 353 c 2,14,-1
 275 1018 l 2,15,16
 275 1180 275 1180 266 1227 c 128,-1,17
 257 1274 257 1274 226 1292 c 128,-1,18
 195 1310 195 1310 92 1310 c 2,19,-1
 67 1310 l 1,20,-1
 67 1356 l 1,21,-1
 237 1362 l 2,22,23
 441 1369 441 1369 555 1369 c 0,24,25
 765 1369 765 1369 878.5 1336 c 128,-1,26
 992 1303 992 1303 1064.5 1219 c 128,-1,27
 1137 1135 1137 1135 1137 1007 c 0,28,29
 1137 896 1137 896 1087.5 811 c 128,-1,30
 1038 726 1038 726 945.5 682 c 128,-1,31
 853 638 853 638 620 638 c 2,32,-1
 471 638 l 1,0,-1
471 688 m 1,33,-1
 568 688 l 2,34,35
 685 688 685 688 757 711.5 c 128,-1,36
 829 735 829 735 877 810 c 128,-1,37
 925 885 925 885 925 995 c 0,38,39
 925 1163 925 1163 842.5 1241.5 c 128,-1,40
 760 1320 760 1320 575 1320 c 0,41,42
 507 1320 507 1320 471 1316 c 1,43,-1
 471 688 l 1,33,-1
EndSplineSet
Substitution2: "<21,0> Lower Case Numbers lookup 8 subtable" P
Substitution2: "<21,1> Upper Case Numbers lookup 7 subtable" P
EndChar

StartChar: Q
Encoding: 81 81 17
Width: 1685
Flags: W
LayerCount: 2
Fore
SplineSet
946 -20 m 1,0,1
 899 -25 899 -25 845 -25 c 0,2,3
 518 -25 518 -25 311.5 169.5 c 128,-1,4
 105 364 105 364 105 687 c 0,5,6
 105 1000 105 1000 314.5 1190.5 c 128,-1,7
 524 1381 524 1381 839 1381 c 0,8,9
 1033 1381 1033 1381 1214 1296.5 c 128,-1,10
 1395 1212 1395 1212 1488 1046.5 c 128,-1,11
 1581 881 1581 881 1581 680 c 0,12,13
 1581 446 1581 446 1459.5 266 c 128,-1,14
 1338 86 1338 86 1108 14 c 1,15,-1
 809 -151 l 1,16,17
 840 -148 840 -148 863 -148 c 0,18,19
 1085 -148 1085 -148 1374 -248 c 0,20,21
 1596 -325 1596 -325 1726 -325 c 0,22,23
 1906 -325 1906 -325 1940 -189 c 1,24,-1
 1982 -189 l 1,25,26
 1965 -327 1965 -327 1867 -413 c 128,-1,27
 1769 -499 1769 -499 1614 -499 c 0,28,29
 1512 -499 1512 -499 1428.5 -466 c 128,-1,30
 1345 -433 1345 -433 1211 -348 c 0,31,32
 971 -195 971 -195 811 -195 c 0,33,34
 715 -195 715 -195 625 -271 c 0,35,36
 565 -321 565 -321 542 -321 c 0,37,38
 506 -321 506 -321 506 -288 c 0,39,40
 506 -263 506 -263 549 -236.5 c 128,-1,41
 592 -210 592 -210 711 -152 c 0,42,43
 736 -140 736 -140 761 -126 c 2,44,-1
 946 -20 l 1,0,1
334 680 m 0,45,46
 334 353 334 353 464.5 189 c 128,-1,47
 595 25 595 25 856 25 c 0,48,49
 1085 25 1085 25 1218 189 c 128,-1,50
 1351 353 1351 353 1351 678 c 0,51,52
 1351 994 1351 994 1220 1162.5 c 128,-1,53
 1089 1331 1089 1331 840 1331 c 0,54,55
 595 1331 595 1331 464.5 1166.5 c 128,-1,56
 334 1002 334 1002 334 680 c 0,45,46
EndSplineSet
Substitution2: "<21,0> Lower Case Numbers lookup 8 subtable" Q
Substitution2: "<21,1> Upper Case Numbers lookup 7 subtable" Q
EndChar

StartChar: R
Encoding: 82 82 18
Width: 1493
Flags: W
LayerCount: 2
Fore
SplineSet
1489 0 m 1,0,-1
 1124 0 l 1,1,2
 1027 68 1027 68 827 356 c 0,3,4
 763 448 763 448 694 532.5 c 128,-1,5
 625 617 625 617 599 635.5 c 128,-1,6
 573 654 573 654 518 654 c 2,7,-1
 464 654 l 1,8,-1
 464 353 l 2,9,10
 464 193 464 193 471.5 143.5 c 128,-1,11
 479 94 479 94 511.5 70 c 128,-1,12
 544 46 544 46 636 46 c 2,13,-1
 701 46 l 1,14,-1
 701 0 l 1,15,-1
 52 0 l 1,16,-1
 52 46 l 1,17,-1
 96 46 l 2,18,19
 183 46 183 46 216.5 68 c 128,-1,20
 250 90 250 90 259 136.5 c 128,-1,21
 268 183 268 183 268 353 c 2,22,-1
 268 1018 l 2,23,24
 268 1180 268 1180 259 1227 c 128,-1,25
 250 1274 250 1274 219 1292 c 128,-1,26
 188 1310 188 1310 85 1310 c 2,27,-1
 62 1310 l 1,28,-1
 62 1356 l 1,29,-1
 256 1366 l 2,30,31
 450 1375 450 1375 564 1375 c 0,32,33
 758 1375 758 1375 879.5 1339 c 128,-1,34
 1001 1303 1001 1303 1076 1221 c 128,-1,35
 1151 1139 1151 1139 1151 1025 c 0,36,37
 1151 892 1151 892 1053 798 c 128,-1,38
 955 704 955 704 765 681 c 1,39,40
 850 640 850 640 1039 385 c 0,41,42
 1193 178 1193 178 1281 114 c 128,-1,43
 1369 50 1369 50 1489 46 c 1,44,-1
 1489 0 l 1,0,-1
464 700 m 1,45,46
 539 702 539 702 619 706 c 128,-1,47
 699 710 699 710 758 728 c 128,-1,48
 817 746 817 746 853.5 780.5 c 128,-1,49
 890 815 890 815 911 871 c 128,-1,50
 932 927 932 927 932 1009 c 0,51,52
 932 1152 932 1152 860.5 1238 c 128,-1,53
 789 1324 789 1324 549 1324 c 0,54,55
 512 1324 512 1324 464 1320 c 1,56,-1
 464 700 l 1,45,46
EndSplineSet
Substitution2: "<21,0> Lower Case Numbers lookup 8 subtable" R
Substitution2: "<21,1> Upper Case Numbers lookup 7 subtable" R
EndChar

StartChar: S
Encoding: 83 83 19
Width: 1109
Flags: W
LayerCount: 2
Fore
SplineSet
118 14 m 1,0,-1
 118 450 l 1,1,-1
 168 450 l 1,2,3
 253 24 253 24 571 24 c 0,4,5
 714 24 714 24 792.5 105.5 c 128,-1,6
 871 187 871 187 871 288 c 0,7,8
 871 390 871 390 802 459 c 0,9,10
 733 527 733 527 550 605 c 0,11,12
 387 675 387 675 304 727.5 c 128,-1,13
 221 780 221 780 174.5 864 c 128,-1,14
 128 948 128 948 128 1043 c 0,15,16
 128 1188 128 1188 228.5 1284.5 c 128,-1,17
 329 1381 329 1381 483 1381 c 0,18,19
 569 1381 569 1381 645 1353 c 128,-1,20
 721 1325 721 1325 801 1237 c 1,21,22
 847 1292 847 1292 853 1356 c 1,23,-1
 897 1356 l 1,24,-1
 897 1001 l 1,25,-1
 853 1001 l 1,26,27
 815 1156 815 1156 718.5 1245 c 128,-1,28
 622 1334 622 1334 495 1334 c 0,29,30
 374 1334 374 1334 317.5 1268.5 c 128,-1,31
 261 1203 261 1203 261 1125 c 0,32,33
 261 1031 261 1031 332 966 c 0,34,35
 402 900 402 900 585 818 c 0,36,37
 760 740 760 740 839.5 692.5 c 128,-1,38
 919 645 919 645 967 561 c 128,-1,39
 1015 477 1015 477 1015 367 c 0,40,41
 1015 193 1015 193 899 84 c 128,-1,42
 783 -25 783 -25 589 -25 c 0,43,44
 366 -25 366 -25 217 146 c 1,45,46
 184 99 184 99 168 14 c 1,47,-1
 118 14 l 1,0,-1
EndSplineSet
Substitution2: "<21,0> Lower Case Numbers lookup 8 subtable" S
Substitution2: "<21,1> Upper Case Numbers lookup 7 subtable" S
EndChar

StartChar: T
Encoding: 84 84 20
Width: 1429
Flags: W
LayerCount: 2
Fore
SplineSet
98 1030 m 1,0,-1
 52 1030 l 1,1,-1
 59 1356 l 1,2,-1
 1375 1356 l 1,3,-1
 1382 1030 l 1,4,-1
 1339 1030 l 1,5,6
 1316 1164 1316 1164 1276 1223.5 c 128,-1,7
 1236 1283 1236 1283 1190 1296.5 c 128,-1,8
 1144 1310 1144 1310 1033 1310 c 2,9,-1
 815 1310 l 1,10,-1
 815 353 l 2,11,12
 815 194 815 194 822.5 144 c 128,-1,13
 830 94 830 94 863 70 c 128,-1,14
 896 46 896 46 987 46 c 2,15,-1
 1053 46 l 1,16,-1
 1053 0 l 1,17,-1
 377 0 l 1,18,-1
 377 46 l 1,19,-1
 447 46 l 2,20,21
 534 46 534 46 567.5 68 c 128,-1,22
 601 90 601 90 610.5 136.5 c 128,-1,23
 620 183 620 183 620 353 c 2,24,-1
 620 1310 l 1,25,-1
 419 1310 l 2,26,27
 288 1310 288 1310 243 1297.5 c 128,-1,28
 198 1285 198 1285 158.5 1222 c 128,-1,29
 119 1159 119 1159 98 1030 c 1,0,-1
EndSplineSet
Substitution2: "<21,0> Lower Case Numbers lookup 8 subtable" T
Substitution2: "<21,1> Upper Case Numbers lookup 7 subtable" T
EndChar

StartChar: U
Encoding: 85 85 21
Width: 1579
Flags: W
LayerCount: 2
Fore
SplineSet
1082 1356 m 1,0,-1
 1535 1356 l 1,1,-1
 1535 1310 l 1,2,3
 1445 1304 1445 1304 1400.5 1269.5 c 128,-1,4
 1356 1235 1356 1235 1346 1192 c 128,-1,5
 1336 1149 1336 1149 1336 1025 c 2,6,-1
 1336 574 l 2,7,8
 1336 401 1336 401 1322.5 317 c 128,-1,9
 1309 233 1309 233 1244.5 152 c 128,-1,10
 1180 71 1180 71 1063 23 c 128,-1,11
 946 -25 946 -25 793 -25 c 0,12,13
 612 -25 612 -25 486.5 36.5 c 128,-1,14
 361 98 361 98 307.5 195.5 c 128,-1,15
 254 293 254 293 254 457 c 2,16,-1
 255 596 l 1,17,-1
 255 1018 l 2,18,19
 255 1180 255 1180 245.5 1227 c 128,-1,20
 236 1274 236 1274 205.5 1292 c 128,-1,21
 175 1310 175 1310 72 1310 c 2,22,-1
 41 1310 l 1,23,-1
 41 1356 l 1,24,-1
 660 1356 l 1,25,-1
 660 1310 l 1,26,-1
 633 1310 l 2,27,28
 533 1310 533 1310 502 1293.5 c 128,-1,29
 471 1277 471 1277 460.5 1232 c 128,-1,30
 450 1187 450 1187 450 1018 c 2,31,-1
 450 591 l 2,32,33
 450 369 450 369 470.5 276 c 128,-1,34
 491 183 491 183 586 113.5 c 128,-1,35
 681 44 681 44 839 44 c 0,36,37
 963 44 963 44 1064.5 90.5 c 128,-1,38
 1166 137 1166 137 1215.5 206.5 c 128,-1,39
 1265 276 1265 276 1276 349.5 c 128,-1,40
 1287 423 1287 423 1287 581 c 2,41,-1
 1287 1043 l 2,42,43
 1287 1158 1287 1158 1274 1204 c 128,-1,44
 1261 1250 1261 1250 1218 1277 c 128,-1,45
 1175 1304 1175 1304 1082 1310 c 1,46,-1
 1082 1356 l 1,0,-1
EndSplineSet
Substitution2: "<21,0> Lower Case Numbers lookup 8 subtable" U
Substitution2: "<21,1> Upper Case Numbers lookup 7 subtable" U
EndChar

StartChar: V
Encoding: 86 86 22
Width: 1493
Flags: W
LayerCount: 2
Fore
SplineSet
798 -32 m 1,0,-1
 736 -32 l 1,1,-1
 268 1046 l 2,2,3
 255 1075 255 1075 227 1146 c 0,4,5
 188 1242 188 1242 145 1275 c 128,-1,6
 102 1308 102 1308 6 1310 c 1,7,-1
 6 1356 l 1,8,-1
 590 1356 l 1,9,-1
 590 1310 l 1,10,11
 481 1310 481 1310 443.5 1294 c 128,-1,12
 406 1278 406 1278 406 1233 c 0,13,14
 406 1204 406 1204 453 1097 c 2,15,-1
 843 197 l 1,16,-1
 1156 946 l 2,17,18
 1235 1134 1235 1134 1235 1191 c 0,19,20
 1235 1306 1235 1306 1072 1310 c 1,21,-1
 1072 1356 l 1,22,-1
 1486 1356 l 1,23,-1
 1486 1310 l 1,24,25
 1423 1308 1423 1308 1375 1265 c 128,-1,26
 1327 1222 1327 1222 1292 1139 c 2,27,-1
 1201 926 l 1,28,-1
 798 -32 l 1,0,-1
EndSplineSet
Substitution2: "<21,0> Lower Case Numbers lookup 8 subtable" V
Substitution2: "<21,1> Upper Case Numbers lookup 7 subtable" V
EndChar

StartChar: W
Encoding: 87 87 23
Width: 1941
Flags: W
LayerCount: 2
Fore
SplineSet
1413 -33 m 1,0,-1
 1368 -33 l 1,1,-1
 955 1085 l 1,2,-1
 594 -33 l 1,3,-1
 546 -33 l 1,4,-1
 219 1023 l 2,5,6
 175 1167 175 1167 155.5 1214.5 c 128,-1,7
 136 1262 136 1262 104.5 1284.5 c 128,-1,8
 73 1307 73 1307 0 1310 c 1,9,-1
 0 1356 l 1,10,-1
 509 1356 l 1,11,-1
 509 1310 l 1,12,13
 417 1304 417 1304 391 1283.5 c 128,-1,14
 365 1263 365 1263 365 1226 c 0,15,16
 365 1193 365 1193 407 1057 c 2,17,-1
 649 267 l 1,18,-1
 1003 1356 l 1,19,-1
 1059 1356 l 1,20,-1
 1457 267 l 1,21,-1
 1664 987 l 2,22,23
 1705 1133 1705 1133 1705 1178 c 0,24,25
 1705 1310 1705 1310 1564 1310 c 1,26,-1
 1564 1356 l 1,27,-1
 1934 1356 l 1,28,-1
 1934 1310 l 1,29,30
 1852 1304 1852 1304 1812 1249.5 c 128,-1,31
 1772 1195 1772 1195 1711 988 c 2,32,-1
 1413 -33 l 1,0,-1
EndSplineSet
Substitution2: "<21,0> Lower Case Numbers lookup 8 subtable" W
Substitution2: "<21,1> Upper Case Numbers lookup 7 subtable" W
EndChar

StartChar: X
Encoding: 88 88 24
Width: 1579
Flags: W
LayerCount: 2
Fore
SplineSet
849 752 m 1,0,-1
 1200 325 l 2,1,2
 1388 97 1388 97 1439 71.5 c 128,-1,3
 1490 46 1490 46 1572 46 c 1,4,-1
 1572 0 l 1,5,-1
 900 0 l 1,6,-1
 900 46 l 1,7,8
 1001 46 1001 46 1041.5 64.5 c 128,-1,9
 1082 83 1082 83 1082 126 c 0,10,11
 1082 152 1082 152 1063.5 182.5 c 128,-1,12
 1045 213 1045 213 968 307 c 2,13,-1
 726 605 l 1,14,-1
 513 347 l 2,15,16
 438 256 438 256 415 219 c 128,-1,17
 392 182 392 182 392 149 c 0,18,19
 392 47 392 47 548 46 c 1,20,-1
 548 0 l 1,21,-1
 23 0 l 1,22,-1
 23 46 l 1,23,24
 108 51 108 51 176.5 83.5 c 128,-1,25
 245 116 245 116 303 174 c 128,-1,26
 361 232 361 232 468 368 c 1,27,-1
 695 641 l 1,28,-1
 338 1070 l 1,29,-1
 223 1208 l 2,30,31
 189 1252 189 1252 143.5 1281 c 128,-1,32
 98 1310 98 1310 23 1310 c 1,33,-1
 23 1356 l 1,34,-1
 601 1356 l 1,35,-1
 601 1310 l 1,36,-1
 582 1310 l 2,37,38
 468 1310 468 1310 468 1248 c 0,39,40
 468 1223 468 1223 485.5 1195 c 128,-1,41
 503 1167 503 1167 567 1091 c 2,42,-1
 816 789 l 1,43,-1
 1041 1071 l 2,44,45
 1113 1160 1113 1160 1128.5 1184.5 c 128,-1,46
 1144 1209 1144 1209 1144 1234 c 0,47,48
 1144 1276 1144 1276 1104 1293 c 128,-1,49
 1064 1310 1064 1310 968 1310 c 1,50,-1
 968 1356 l 1,51,-1
 1477 1356 l 1,52,-1
 1477 1310 l 1,53,54
 1347 1310 1347 1310 1258.5 1233.5 c 128,-1,55
 1170 1157 1170 1157 1063 1022 c 2,56,-1
 849 752 l 1,0,-1
EndSplineSet
Substitution2: "<21,0> Lower Case Numbers lookup 8 subtable" X
Substitution2: "<21,1> Upper Case Numbers lookup 7 subtable" X
EndChar

StartChar: Y
Encoding: 89 89 25
Width: 1387
Flags: W
LayerCount: 2
Fore
SplineSet
771 593 m 1,0,-1
 1038 1042 l 2,1,2
 1104 1152 1104 1152 1104 1198 c 0,3,4
 1104 1240 1104 1240 1069 1275 c 128,-1,5
 1034 1310 1034 1310 944 1310 c 1,6,-1
 944 1356 l 1,7,-1
 1387 1356 l 1,8,-1
 1387 1310 l 1,9,10
 1295 1297 1295 1297 1238.5 1241.5 c 128,-1,11
 1182 1186 1182 1186 1094 1040 c 2,12,-1
 790 533 l 1,13,-1
 790 353 l 2,14,15
 790 180 790 180 800.5 132.5 c 128,-1,16
 811 85 811 85 845.5 65.5 c 128,-1,17
 880 46 880 46 981 46 c 1,18,-1
 981 0 l 1,19,-1
 403 0 l 1,20,-1
 403 46 l 1,21,-1
 425 46 l 2,22,23
 512 46 512 46 545.5 68 c 128,-1,24
 579 90 579 90 588 136.5 c 128,-1,25
 597 183 597 183 597 353 c 2,26,-1
 597 520 l 1,27,-1
 259 1075 l 2,28,29
 156 1243 156 1243 122 1275.5 c 128,-1,30
 88 1308 88 1308 0 1310 c 1,31,-1
 0 1356 l 1,32,-1
 550 1356 l 1,33,-1
 550 1310 l 1,34,35
 396 1310 396 1310 396 1240 c 0,36,37
 396 1212 396 1212 447 1128 c 2,38,-1
 771 593 l 1,0,-1
EndSplineSet
Substitution2: "<21,0> Lower Case Numbers lookup 8 subtable" Y
Substitution2: "<21,1> Upper Case Numbers lookup 7 subtable" Y
EndChar

StartChar: Z
Encoding: 90 90 26
Width: 1301
Flags: W
LayerCount: 2
Fore
SplineSet
62 0 m 1,0,-1
 62 35 l 1,1,-1
 937 1310 l 1,2,-1
 515 1310 l 2,3,4
 379 1310 379 1310 337.5 1299 c 128,-1,5
 296 1288 296 1288 242 1219.5 c 128,-1,6
 188 1151 188 1151 160 1044 c 1,7,-1
 116 1044 l 1,8,-1
 160 1356 l 1,9,-1
 1168 1356 l 1,10,-1
 1168 1310 l 1,11,-1
 302 46 l 1,12,-1
 716 46 l 2,13,14
 927 46 927 46 984 79 c 128,-1,15
 1041 112 1041 112 1087.5 193 c 128,-1,16
 1134 274 1134 274 1158 351 c 1,17,-1
 1204 351 l 1,18,-1
 1158 0 l 1,19,-1
 62 0 l 1,0,-1
EndSplineSet
Substitution2: "<21,0> Lower Case Numbers lookup 8 subtable" Z
Substitution2: "<21,1> Upper Case Numbers lookup 7 subtable" Z
EndChar

StartChar: bracketleft
Encoding: 91 91 27
Width: 704
Flags: W
LayerCount: 2
Fore
SplineSet
743 -478 m 1,0,-1
 267 -478 l 1,1,-1
 267 1356 l 1,2,-1
 743 1356 l 1,3,-1
 743 1310 l 1,4,-1
 511 1310 l 2,5,6
 451 1310 451 1310 428 1294.5 c 128,-1,7
 405 1279 405 1279 399.5 1250.5 c 128,-1,8
 394 1222 394 1222 394 1118 c 2,9,-1
 394 -239 l 2,10,11
 394 -340 394 -340 399 -369.5 c 128,-1,12
 404 -399 404 -399 426.5 -415.5 c 128,-1,13
 449 -432 449 -432 511 -432 c 2,14,-1
 743 -432 l 1,15,-1
 743 -478 l 1,0,-1
EndSplineSet
Substitution2: "<21,0> Lower Case Numbers lookup 8 subtable" bracketleft
Substitution2: "<21,1> Upper Case Numbers lookup 7 subtable" bracketleft
EndChar

StartChar: backslash
Encoding: 92 92 28
Width: 1067
Flags: W
LayerCount: 2
Fore
SplineSet
256 1343 m 1,0,-1
 938 -33 l 1,1,-1
 817 -33 l 1,2,-1
 135 1343 l 1,3,-1
 256 1343 l 1,0,-1
EndSplineSet
Substitution2: "<21,0> Lower Case Numbers lookup 8 subtable" backslash
Substitution2: "<21,1> Upper Case Numbers lookup 7 subtable" backslash
EndChar

StartChar: bracketright
Encoding: 93 93 29
Width: 704
Flags: W
LayerCount: 2
Fore
SplineSet
-41 -478 m 1,0,-1
 -41 -432 l 1,1,-1
 191 -432 l 2,2,3
 251 -432 251 -432 274 -416 c 128,-1,4
 297 -400 297 -400 302.5 -371.5 c 128,-1,5
 308 -343 308 -343 308 -239 c 2,6,-1
 308 1118 l 2,7,8
 308 1218 308 1218 303 1247.5 c 128,-1,9
 298 1277 298 1277 275.5 1293.5 c 128,-1,10
 253 1310 253 1310 191 1310 c 2,11,-1
 -41 1310 l 1,12,-1
 -41 1356 l 1,13,-1
 435 1356 l 1,14,-1
 435 -478 l 1,15,-1
 -41 -478 l 1,0,-1
EndSplineSet
Substitution2: "<21,0> Lower Case Numbers lookup 8 subtable" bracketright
Substitution2: "<21,1> Upper Case Numbers lookup 7 subtable" bracketright
EndChar

StartChar: asciicircum
Encoding: 94 94 30
Width: 960
Flags: W
LayerCount: 2
Fore
SplineSet
510 1375 m 1,0,-1
 935 658 l 1,1,-1
 789 658 l 1,2,-1
 481 1178 l 1,3,-1
 174 658 l 1,4,-1
 25 658 l 1,5,-1
 456 1375 l 1,6,-1
 510 1375 l 1,0,-1
EndSplineSet
Substitution2: "<21,0> Lower Case Numbers lookup 8 subtable" asciicircum
Substitution2: "<21,1> Upper Case Numbers lookup 7 subtable" asciicircum
EndChar

StartChar: underscore
Encoding: 95 95 31
Width: 1024
Flags: W
LayerCount: 2
Fore
SplineSet
-12 -154 m 1,0,-1
 1036 -154 l 1,1,-1
 1036 -256 l 1,2,-1
 -12 -256 l 1,3,-1
 -12 -154 l 1,0,-1
EndSplineSet
Substitution2: "<21,0> Lower Case Numbers lookup 8 subtable" underscore
Substitution2: "<21,1> Upper Case Numbers lookup 7 subtable" underscore
EndChar

StartChar: grave
Encoding: 96 96 32
Width: 683
Flags: W
LayerCount: 2
Fore
SplineSet
480 1002 m 1,0,-1
 328 1128 l 2,1,2
 218 1219 218 1219 194 1246.5 c 128,-1,3
 170 1274 170 1274 170 1300 c 0,4,5
 170 1356 170 1356 231 1356 c 0,6,7
 264 1356 264 1356 290 1332 c 128,-1,8
 316 1308 316 1308 363 1235 c 2,9,-1
 513 1002 l 1,10,-1
 480 1002 l 1,0,-1
EndSplineSet
Substitution2: "<21,0> Lower Case Numbers lookup 8 subtable" grave
Substitution2: "<21,1> Upper Case Numbers lookup 7 subtable" grave
EndChar

StartChar: a
Encoding: 97 97 33
Width: 960
Flags: W
LayerCount: 2
Fore
SplineSet
902 150 m 1,0,-1
 939 150 l 1,1,2
 930 -21 930 -21 771 -21 c 0,3,4
 703 -21 703 -21 663.5 15 c 128,-1,5
 624 51 624 51 612 122 c 1,6,7
 512 51 512 51 429.5 15 c 128,-1,8
 347 -21 347 -21 282 -21 c 0,9,10
 199 -21 199 -21 139 27 c 128,-1,11
 79 75 79 75 79 154 c 0,12,13
 79 257 79 257 179.5 334 c 128,-1,14
 280 411 280 411 457 484 c 2,15,-1
 612 547 l 1,16,-1
 612 587 l 2,17,18
 612 672 612 672 601 710 c 128,-1,19
 590 748 590 748 544 778 c 128,-1,20
 498 808 498 808 423 808 c 0,21,22
 273 808 273 808 256 708 c 0,23,24
 240 606 240 606 172 606 c 0,25,26
 111 606 111 606 111 664 c 0,27,28
 111 721 111 721 192 786.5 c 128,-1,29
 273 852 273 852 444 852 c 0,30,31
 571 852 571 852 641 812 c 128,-1,32
 711 772 711 772 733.5 721 c 128,-1,33
 756 670 756 670 756 565 c 2,34,-1
 756 234 l 2,35,36
 756 118 756 118 768 85 c 256,37,38
 780 52 780 52 820 52 c 0,39,40
 886 52 886 52 902 150 c 1,0,-1
612 500 m 1,41,-1
 503 456 l 2,42,43
 245 351 245 351 245 192 c 0,44,45
 245 129 245 129 278 90.5 c 128,-1,46
 311 52 311 52 364 52 c 0,47,48
 411 52 411 52 473 83 c 128,-1,49
 535 114 535 114 612 176 c 1,50,-1
 612 500 l 1,41,-1
EndSplineSet
Substitution2: "<21,0> Lower Case Numbers lookup 8 subtable" a
Substitution2: "<21,1> Upper Case Numbers lookup 7 subtable" a
EndChar

StartChar: b
Encoding: 98 98 34
Width: 1067
Flags: W
LayerCount: 2
Fore
SplineSet
197 -33 m 1,0,-1
 158 -33 l 1,1,-1
 158 1063 l 2,2,3
 158 1183 158 1183 151.5 1218 c 128,-1,4
 145 1253 145 1253 118.5 1270 c 128,-1,5
 92 1287 92 1287 26 1287 c 1,6,-1
 26 1333 l 1,7,8
 85 1333 85 1333 168 1347 c 128,-1,9
 251 1361 251 1361 281 1375 c 1,10,-1
 302 1375 l 1,11,-1
 302 727 l 1,12,13
 372 790 372 790 444 821 c 128,-1,14
 516 852 516 852 590 852 c 0,15,16
 767 852 767 852 880 729 c 128,-1,17
 993 606 993 606 993 415 c 0,18,19
 993 223 993 223 877 95 c 128,-1,20
 761 -33 761 -33 576 -33 c 0,21,22
 485 -33 485 -33 416.5 5 c 128,-1,23
 348 43 348 43 302 118 c 1,24,25
 237 53 237 53 197 -33 c 1,0,-1
302 668 m 1,26,-1
 302 347 l 2,27,28
 302 223 302 223 318.5 168.5 c 128,-1,29
 335 114 335 114 398 64 c 128,-1,30
 461 14 461 14 545 14 c 0,31,32
 674 14 674 14 750.5 120 c 128,-1,33
 827 226 827 226 827 425 c 0,34,35
 827 608 827 608 755.5 703.5 c 128,-1,36
 684 799 684 799 565 799 c 0,37,38
 497 799 497 799 431.5 766.5 c 128,-1,39
 366 734 366 734 302 668 c 1,26,-1
EndSplineSet
Substitution2: "<21,0> Lower Case Numbers lookup 8 subtable" b
Substitution2: "<21,1> Upper Case Numbers lookup 7 subtable" b
EndChar

StartChar: c
Encoding: 99 99 35
Width: 875
Flags: W
LayerCount: 2
Fore
SplineSet
783 200 m 1,0,-1
 827 200 l 1,1,2
 759 -33 759 -33 487 -33 c 0,3,4
 312 -33 312 -33 192.5 86 c 128,-1,5
 73 205 73 205 73 401 c 0,6,7
 73 602 73 602 202 727 c 128,-1,8
 331 852 331 852 507 852 c 0,9,10
 613 852 613 852 702 805.5 c 128,-1,11
 791 759 791 759 791 692 c 0,12,13
 791 667 791 667 774.5 645 c 128,-1,14
 758 623 758 623 727 623 c 0,15,16
 661 623 661 623 646 700 c 0,17,18
 634 758 634 758 609 781 c 0,19,20
 583 804 583 804 508 804 c 0,21,22
 374 804 374 804 306.5 711 c 128,-1,23
 239 618 239 618 239 431 c 0,24,25
 239 238 239 238 311.5 129 c 128,-1,26
 384 20 384 20 531 20 c 0,27,28
 729 20 729 20 783 200 c 1,0,-1
EndSplineSet
Substitution2: "<21,0> Lower Case Numbers lookup 8 subtable" c
Substitution2: "<21,1> Upper Case Numbers lookup 7 subtable" c
EndChar

StartChar: d
Encoding: 100 100 36
Width: 1067
Flags: W
LayerCount: 2
Fore
SplineSet
769 732 m 1,0,-1
 769 1052 l 2,1,2
 769 1183 769 1183 765.5 1217 c 128,-1,3
 762 1251 762 1251 737 1269 c 128,-1,4
 712 1287 712 1287 648 1287 c 2,5,-1
 627 1287 l 1,6,-1
 627 1333 l 1,7,8
 748 1336 748 1336 892 1375 c 1,9,-1
 913 1375 l 1,10,-1
 913 274 l 2,11,12
 913 131 913 131 918 100 c 128,-1,13
 923 69 923 69 949.5 54 c 128,-1,14
 976 39 976 39 1048 39 c 1,15,-1
 1048 -7 l 1,16,17
 903 -10 903 -10 790 -33 c 1,18,19
 778 14 778 14 778 115 c 1,20,21
 704 41 704 41 625.5 4 c 128,-1,22
 547 -33 547 -33 463 -33 c 0,23,24
 304 -33 304 -33 188.5 95 c 128,-1,25
 73 223 73 223 73 405 c 0,26,27
 73 605 73 605 191 728.5 c 128,-1,28
 309 852 309 852 472 852 c 0,29,30
 555 852 555 852 629 822 c 128,-1,31
 703 792 703 792 769 732 c 1,0,-1
769 674 m 1,32,33
 703 731 703 731 636.5 759.5 c 128,-1,34
 570 788 570 788 503 788 c 0,35,36
 390 788 390 788 314.5 701 c 128,-1,37
 239 614 239 614 239 417 c 0,38,39
 239 217 239 217 316.5 122 c 128,-1,40
 394 27 394 27 508 27 c 0,41,42
 584 27 584 27 649 63 c 128,-1,43
 714 99 714 99 769 171 c 1,44,-1
 769 674 l 1,32,33
EndSplineSet
Substitution2: "<21,0> Lower Case Numbers lookup 8 subtable" d
Substitution2: "<21,1> Upper Case Numbers lookup 7 subtable" d
EndChar

StartChar: e
Encoding: 101 101 37
Width: 896
Flags: W
LayerCount: 2
Fore
SplineSet
818 542 m 1,0,-1
 247 542 l 1,1,2
 243 483 243 483 243 454 c 0,3,4
 243 238 243 238 310.5 129.5 c 128,-1,5
 378 21 378 21 512 21 c 0,6,7
 694 21 694 21 770 184 c 1,8,-1
 818 184 l 1,9,10
 786 82 786 82 691 24.5 c 128,-1,11
 596 -33 596 -33 484 -33 c 0,12,13
 380 -33 380 -33 287.5 19.5 c 128,-1,14
 195 72 195 72 136 168 c 128,-1,15
 77 264 77 264 77 401 c 0,16,17
 77 595 77 595 191 723.5 c 128,-1,18
 305 852 305 852 476 852 c 0,19,20
 637 852 637 852 725 754 c 128,-1,21
 813 656 813 656 818 542 c 1,0,-1
643 582 m 1,22,23
 646 605 646 605 646 623 c 0,24,25
 646 711 646 711 594.5 759.5 c 128,-1,26
 543 808 543 808 468 808 c 0,27,28
 286 808 286 808 251 582 c 1,29,-1
 643 582 l 1,22,23
EndSplineSet
Substitution2: "<21,0> Lower Case Numbers lookup 8 subtable" e
Substitution2: "<21,1> Upper Case Numbers lookup 7 subtable" e
EndChar

StartChar: f
Encoding: 102 102 38
Width: 555
Flags: W
LayerCount: 2
Fore
SplineSet
498 819 m 1,0,-1
 498 773 l 1,1,-1
 327 773 l 1,2,-1
 327 281 l 2,3,4
 327 150 327 150 330.5 116 c 128,-1,5
 334 82 334 82 359 64 c 128,-1,6
 384 46 384 46 448 46 c 2,7,-1
 491 46 l 1,8,-1
 491 0 l 1,9,-1
 48 0 l 1,10,-1
 48 46 l 1,11,12
 117 46 117 46 143.5 60 c 128,-1,13
 170 74 170 74 176.5 102.5 c 128,-1,14
 183 131 183 131 183 281 c 2,15,-1
 183 773 l 1,16,-1
 30 773 l 1,17,-1
 30 819 l 1,18,-1
 183 819 l 1,19,-1
 183 893 l 2,20,21
 183 1017 183 1017 193 1085 c 128,-1,22
 203 1153 203 1153 249.5 1225.5 c 128,-1,23
 296 1298 296 1298 366.5 1337 c 128,-1,24
 437 1376 437 1376 534 1376 c 0,25,26
 652 1376 652 1376 723 1327 c 128,-1,27
 794 1278 794 1278 794 1227 c 0,28,29
 794 1198 794 1198 774 1179 c 128,-1,30
 754 1160 754 1160 727 1160 c 0,31,32
 674 1160 674 1160 630 1242 c 0,33,34
 581 1332 581 1332 503 1332 c 0,35,36
 440 1332 440 1332 392.5 1286.5 c 128,-1,37
 345 1241 345 1241 336 1173 c 128,-1,38
 327 1105 327 1105 327 881 c 2,39,-1
 327 819 l 1,40,-1
 498 819 l 1,0,-1
EndSplineSet
Substitution2: "<21,0> Lower Case Numbers lookup 8 subtable" f
Substitution2: "<21,1> Upper Case Numbers lookup 7 subtable" f
EndChar

StartChar: g
Encoding: 103 103 39
Width: 960
Flags: W
LayerCount: 2
Fore
SplineSet
702 747 m 1,0,1
 787 843 787 843 874 843 c 0,2,3
 922 843 922 843 948.5 817 c 128,-1,4
 975 791 975 791 975 760 c 0,5,6
 975 694 975 694 915 694 c 0,7,8
 882 694 882 694 858 735 c 0,9,10
 836 773 836 773 812 773 c 0,11,12
 774 773 774 773 728 721 c 1,13,14
 780 639 780 639 780 547 c 0,15,16
 780 427 780 427 694 335 c 0,17,18
 608 242 608 242 404 235 c 0,19,20
 192 228 192 228 192 149 c 0,21,22
 192 112 192 112 240 97 c 0,23,24
 287 81 287 81 438 73 c 0,25,26
 603 65 603 65 692 42.5 c 128,-1,27
 781 20 781 20 834 -48 c 128,-1,28
 887 -116 887 -116 887 -210 c 0,29,30
 887 -342 887 -342 779 -423 c 128,-1,31
 671 -504 671 -504 468 -504 c 0,32,33
 282 -504 282 -504 170 -432 c 128,-1,34
 58 -360 58 -360 58 -250 c 0,35,36
 58 -189 58 -189 90 -150 c 128,-1,37
 122 -111 122 -111 181 -111 c 0,38,39
 197 -111 197 -111 210 -116 c 1,40,41
 148 -184 148 -184 148 -260 c 0,42,43
 148 -348 148 -348 230.5 -405.5 c 128,-1,44
 313 -463 313 -463 477 -463 c 0,45,46
 623 -463 623 -463 704.5 -404.5 c 128,-1,47
 786 -346 786 -346 786 -255 c 0,48,49
 786 -155 786 -155 713 -114 c 0,50,51
 640 -74 640 -74 453 -66 c 0,52,53
 238 -57 238 -57 174 -13 c 0,54,55
 110 30 110 30 110 98 c 0,56,57
 110 229 110 229 293 263 c 1,58,59
 198 319 198 319 150 391 c 128,-1,60
 102 463 102 463 102 552 c 0,61,62
 102 677 102 677 200.5 764.5 c 128,-1,63
 299 852 299 852 434 852 c 0,64,65
 601 852 601 852 702 747 c 1,0,1
252 529 m 0,66,67
 252 400 252 400 305 340 c 128,-1,68
 358 280 358 280 440 280 c 0,69,70
 516 280 516 280 570.5 339.5 c 128,-1,71
 625 399 625 399 625 546 c 0,72,73
 625 694 625 694 567 750 c 128,-1,74
 509 806 509 806 436 806 c 0,75,76
 344 806 344 806 298 737 c 128,-1,77
 252 668 252 668 252 529 c 0,66,67
EndSplineSet
Substitution2: "<21,0> Lower Case Numbers lookup 8 subtable" g
Substitution2: "<21,1> Upper Case Numbers lookup 7 subtable" g
EndChar

StartChar: h
Encoding: 104 104 40
Width: 1088
Flags: W
LayerCount: 2
Fore
SplineSet
334 684 m 1,0,1
 394 768 394 768 468.5 810 c 128,-1,2
 543 852 543 852 632 852 c 0,3,4
 733 852 733 852 799.5 810 c 128,-1,5
 866 768 866 768 886 706.5 c 128,-1,6
 906 645 906 645 906 507 c 2,7,-1
 906 281 l 2,8,9
 906 137 906 137 911.5 106 c 128,-1,10
 917 75 917 75 944 60.5 c 128,-1,11
 971 46 971 46 1044 46 c 1,12,-1
 1044 0 l 1,13,-1
 621 0 l 1,14,-1
 621 46 l 1,15,-1
 640 46 l 2,16,17
 713 46 713 46 734.5 67 c 128,-1,18
 756 88 756 88 759.5 116.5 c 128,-1,19
 763 145 763 145 763 281 c 2,20,-1
 763 527 l 2,21,22
 763 629 763 629 751 678 c 128,-1,23
 739 727 739 727 694.5 759 c 128,-1,24
 650 791 650 791 583 791 c 0,25,26
 505 791 505 791 443 745.5 c 128,-1,27
 381 700 381 700 334 609 c 1,28,-1
 334 281 l 2,29,30
 334 143 334 143 338.5 111 c 128,-1,31
 343 79 343 79 369 62.5 c 128,-1,32
 395 46 395 46 464 46 c 1,33,-1
 464 0 l 1,34,-1
 48 0 l 1,35,-1
 48 46 l 1,36,-1
 69 46 l 2,37,38
 141 46 141 46 162.5 66.5 c 128,-1,39
 184 87 184 87 187.5 115.5 c 128,-1,40
 191 144 191 144 191 281 c 2,41,-1
 191 1097 l 2,42,43
 191 1221 191 1221 167.5 1254 c 128,-1,44
 144 1287 144 1287 55 1287 c 1,45,-1
 55 1333 l 1,46,47
 210 1333 210 1333 313 1375 c 1,48,-1
 334 1375 l 1,49,-1
 334 684 l 1,0,1
EndSplineSet
Substitution2: "<21,0> Lower Case Numbers lookup 8 subtable" h
Substitution2: "<21,1> Upper Case Numbers lookup 7 subtable" h
EndChar

StartChar: i
Encoding: 105 105 41
Width: 512
Flags: W
LayerCount: 2
Fore
SplineSet
137 1270 m 0,0,1
 137 1313 137 1313 167.5 1344 c 128,-1,2
 198 1375 198 1375 241 1375 c 256,3,4
 284 1375 284 1375 314 1344 c 128,-1,5
 344 1313 344 1313 344 1270 c 0,6,7
 344 1226 344 1226 314 1195 c 128,-1,8
 284 1164 284 1164 241 1164 c 256,9,10
 198 1164 198 1164 167.5 1195 c 128,-1,11
 137 1226 137 1226 137 1270 c 0,0,1
330 852 m 1,12,-1
 330 281 l 2,13,14
 330 150 330 150 334 116 c 128,-1,15
 338 82 338 82 363 64 c 128,-1,16
 388 46 388 46 452 46 c 2,17,-1
 473 46 l 1,18,-1
 473 0 l 1,19,-1
 32 0 l 1,20,-1
 32 46 l 1,21,-1
 66 46 l 2,22,23
 137 46 137 46 158.5 66.5 c 128,-1,24
 180 87 180 87 183.5 115.5 c 128,-1,25
 187 144 187 144 187 281 c 2,26,-1
 187 529 l 2,27,28
 187 673 187 673 173.5 705 c 128,-1,29
 160 737 160 737 137.5 745 c 128,-1,30
 115 753 115 753 59 753 c 2,31,-1
 32 753 l 1,32,-1
 32 799 l 1,33,34
 210 817 210 817 308 852 c 1,35,-1
 330 852 l 1,12,-1
EndSplineSet
Substitution2: "<21,0> Lower Case Numbers lookup 8 subtable" i
Substitution2: "<21,1> Upper Case Numbers lookup 7 subtable" i
EndChar

StartChar: j
Encoding: 106 106 42
Width: 512
Flags: W
LayerCount: 2
Fore
SplineSet
148 1270 m 0,0,1
 148 1313 148 1313 178 1344 c 128,-1,2
 208 1375 208 1375 252 1375 c 0,3,4
 295 1375 295 1375 325 1344 c 128,-1,5
 355 1313 355 1313 355 1270 c 0,6,7
 355 1226 355 1226 324.5 1195 c 128,-1,8
 294 1164 294 1164 252 1164 c 0,9,10
 207 1164 207 1164 177.5 1196 c 128,-1,11
 148 1228 148 1228 148 1270 c 0,0,1
345 852 m 1,12,-1
 345 -28 l 2,13,14
 345 -159 345 -159 334.5 -229 c 128,-1,15
 324 -299 324 -299 282 -363 c 128,-1,16
 240 -427 240 -427 163.5 -465.5 c 128,-1,17
 87 -504 87 -504 -9 -504 c 0,18,19
 -100 -504 -100 -504 -162 -469 c 128,-1,20
 -224 -434 -224 -434 -224 -380 c 0,21,22
 -224 -348 -224 -348 -204.5 -331 c 128,-1,23
 -185 -314 -185 -314 -161 -314 c 0,24,25
 -116 -314 -116 -314 -87 -378 c 0,26,27
 -52 -460 -52 -460 20 -460 c 0,28,29
 83 -460 83 -460 131.5 -418.5 c 128,-1,30
 180 -377 180 -377 191 -311.5 c 128,-1,31
 202 -246 202 -246 202 -102 c 2,32,-1
 202 530 l 2,33,34
 202 651 202 651 193 689.5 c 128,-1,35
 184 728 184 728 161.5 740.5 c 128,-1,36
 139 753 139 753 75 753 c 2,37,-1
 50 753 l 1,38,-1
 50 799 l 1,39,40
 226 817 226 817 323 852 c 1,41,-1
 345 852 l 1,12,-1
EndSplineSet
Substitution2: "<21,0> Lower Case Numbers lookup 8 subtable" j
Substitution2: "<21,1> Upper Case Numbers lookup 7 subtable" j
EndChar

StartChar: k
Encoding: 107 107 43
Width: 939
Flags: W
LayerCount: 2
Fore
SplineSet
541 819 m 1,0,-1
 871 819 l 1,1,-1
 871 773 l 1,2,3
 780 771 780 771 627 637 c 0,4,5
 578 595 578 595 475 514 c 1,6,-1
 767 172 l 2,7,8
 833 95 833 95 871 71.5 c 128,-1,9
 909 48 909 48 949 46 c 1,10,-1
 949 0 l 1,11,-1
 541 0 l 1,12,-1
 541 46 l 1,13,14
 643 48 643 48 643 90 c 0,15,16
 643 109 643 109 576 187 c 2,17,-1
 366 431 l 1,18,-1
 323 399 l 1,19,-1
 323 281 l 2,20,21
 323 150 323 150 326.5 116.5 c 128,-1,22
 330 83 330 83 355 64.5 c 128,-1,23
 380 46 380 46 442 46 c 1,24,-1
 442 0 l 1,25,-1
 27 0 l 1,26,-1
 27 46 l 1,27,-1
 58 46 l 2,28,29
 130 46 130 46 151.5 66.5 c 128,-1,30
 173 87 173 87 176 115.5 c 128,-1,31
 179 144 179 144 179 281 c 2,32,-1
 179 1102 l 2,33,34
 179 1221 179 1221 156.5 1254 c 128,-1,35
 134 1287 134 1287 48 1287 c 1,36,-1
 48 1333 l 1,37,38
 107 1333 107 1333 189.5 1347 c 128,-1,39
 272 1361 272 1361 302 1375 c 1,40,-1
 323 1375 l 1,41,-1
 323 454 l 1,42,-1
 409 514 l 2,43,44
 618 662 618 662 618 727 c 0,45,46
 618 771 618 771 541 773 c 1,47,-1
 541 819 l 1,0,-1
EndSplineSet
Substitution2: "<21,0> Lower Case Numbers lookup 8 subtable" k
Substitution2: "<21,1> Upper Case Numbers lookup 7 subtable" k
EndChar

StartChar: l
Encoding: 108 108 44
Width: 491
Flags: W
LayerCount: 2
Fore
SplineSet
314 1375 m 1,0,-1
 314 281 l 2,1,2
 314 150 314 150 317.5 116 c 128,-1,3
 321 82 321 82 346 64 c 128,-1,4
 371 46 371 46 435 46 c 2,5,-1
 459 46 l 1,6,-1
 459 0 l 1,7,-1
 21 0 l 1,8,-1
 21 46 l 1,9,-1
 49 46 l 2,10,11
 109 46 109 46 134.5 62.5 c 128,-1,12
 160 79 160 79 165 109 c 128,-1,13
 170 139 170 139 170 281 c 2,14,-1
 170 1091 l 2,15,16
 170 1220 170 1220 147 1253.5 c 128,-1,17
 124 1287 124 1287 35 1287 c 1,18,-1
 35 1333 l 1,19,20
 96 1333 96 1333 178.5 1347 c 128,-1,21
 261 1361 261 1361 292 1375 c 1,22,-1
 314 1375 l 1,0,-1
EndSplineSet
Substitution2: "<21,0> Lower Case Numbers lookup 8 subtable" l
Substitution2: "<21,1> Upper Case Numbers lookup 7 subtable" l
EndChar

StartChar: m
Encoding: 109 109 45
Width: 1643
Flags: W
LayerCount: 2
Fore
SplineSet
287 852 m 1,0,-1
 297 852 l 1,1,2
 326 785 326 785 326 680 c 1,3,4
 393 766 393 766 470.5 809 c 128,-1,5
 548 852 548 852 637 852 c 0,6,7
 738 852 738 852 801 806 c 128,-1,8
 864 760 864 760 889 668 c 1,9,10
 965 760 965 760 1045 806 c 128,-1,11
 1125 852 1125 852 1208 852 c 0,12,13
 1303 852 1303 852 1369 808 c 128,-1,14
 1435 764 1435 764 1449 708 c 128,-1,15
 1463 652 1463 652 1463 527 c 2,16,-1
 1463 281 l 2,17,18
 1463 138 1463 138 1468.5 107 c 128,-1,19
 1474 76 1474 76 1500.5 61 c 128,-1,20
 1527 46 1527 46 1599 46 c 1,21,-1
 1599 0 l 1,22,-1
 1190 0 l 1,23,-1
 1190 46 l 1,24,25
 1255 46 1255 46 1281.5 60.5 c 128,-1,26
 1308 75 1308 75 1314 104.5 c 128,-1,27
 1320 134 1320 134 1320 281 c 2,28,-1
 1320 554 l 2,29,30
 1320 637 1320 637 1310.5 679 c 128,-1,31
 1301 721 1301 721 1261 751 c 128,-1,32
 1221 781 1221 781 1157 781 c 0,33,34
 1092 781 1092 781 1026.5 737 c 128,-1,35
 961 693 961 693 895 604 c 1,36,-1
 895 281 l 2,37,38
 895 150 895 150 898.5 116.5 c 128,-1,39
 902 83 902 83 926.5 64.5 c 128,-1,40
 951 46 951 46 1014 46 c 1,41,-1
 1014 0 l 1,42,-1
 618 0 l 1,43,-1
 618 46 l 1,44,45
 685 46 685 46 711.5 60 c 128,-1,46
 738 74 738 74 744.5 103 c 128,-1,47
 751 132 751 132 751 281 c 2,48,-1
 751 508 l 2,49,50
 751 616 751 616 742.5 664.5 c 128,-1,51
 734 713 734 713 691 747.5 c 128,-1,52
 648 782 648 782 584 782 c 0,53,54
 522 782 522 782 457.5 742 c 128,-1,55
 393 702 393 702 326 622 c 1,56,-1
 326 281 l 2,57,58
 326 146 326 146 330 113 c 128,-1,59
 334 80 334 80 360 63 c 128,-1,60
 386 46 386 46 453 46 c 1,61,-1
 453 0 l 1,62,-1
 52 0 l 1,63,-1
 52 46 l 1,64,65
 118 46 118 46 144.5 60.5 c 128,-1,66
 171 75 171 75 177 104 c 128,-1,67
 183 133 183 133 183 281 c 2,68,-1
 183 526 l 2,69,70
 183 666 183 666 178.5 697.5 c 128,-1,71
 174 729 174 729 147.5 745 c 128,-1,72
 121 761 121 761 52 761 c 1,73,-1
 52 807 l 1,74,75
 194 821 194 821 287 852 c 1,0,-1
EndSplineSet
Substitution2: "<21,0> Lower Case Numbers lookup 8 subtable" m
Substitution2: "<21,1> Upper Case Numbers lookup 7 subtable" m
EndChar

StartChar: n
Encoding: 110 110 46
Width: 1088
Flags: W
LayerCount: 2
Fore
SplineSet
282 852 m 1,0,-1
 309 852 l 1,1,2
 332 790 332 790 335 683 c 1,3,4
 407 768 407 768 486 810 c 128,-1,5
 565 852 565 852 651 852 c 0,6,7
 749 852 749 852 811.5 811 c 128,-1,8
 874 770 874 770 892 710.5 c 128,-1,9
 910 651 910 651 910 537 c 2,10,-1
 910 281 l 2,11,12
 910 139 910 139 915 108 c 128,-1,13
 920 77 920 77 946.5 61.5 c 128,-1,14
 973 46 973 46 1044 46 c 1,15,-1
 1044 0 l 1,16,-1
 625 0 l 1,17,-1
 625 46 l 1,18,-1
 644 46 l 2,19,20
 716 46 716 46 738 67 c 128,-1,21
 760 88 760 88 763 116 c 128,-1,22
 766 144 766 144 766 281 c 2,23,-1
 766 545 l 2,24,25
 766 642 766 642 756.5 683.5 c 128,-1,26
 747 725 747 725 705.5 757 c 128,-1,27
 664 789 664 789 600 789 c 0,28,29
 527 789 527 789 460.5 745.5 c 128,-1,30
 394 702 394 702 335 615 c 1,31,-1
 335 281 l 2,32,33
 335 139 335 139 340.5 108 c 128,-1,34
 346 77 346 77 372.5 61.5 c 128,-1,35
 399 46 399 46 471 46 c 1,36,-1
 471 0 l 1,37,-1
 57 0 l 1,38,-1
 57 46 l 1,39,40
 126 46 126 46 153 60 c 128,-1,41
 180 74 180 74 186.5 102.5 c 128,-1,42
 193 131 193 131 193 281 c 2,43,-1
 193 525 l 2,44,45
 193 668 193 668 187.5 698.5 c 128,-1,46
 182 729 182 729 155.5 744.5 c 128,-1,47
 129 760 129 760 57 760 c 1,48,-1
 57 806 l 1,49,50
 167 818 167 818 282 852 c 1,0,-1
EndSplineSet
Substitution2: "<21,0> Lower Case Numbers lookup 8 subtable" n
Substitution2: "<21,1> Upper Case Numbers lookup 7 subtable" n
EndChar

StartChar: o
Encoding: 111 111 47
Width: 1024
Flags: W
LayerCount: 2
Fore
SplineSet
76 411 m 0,0,1
 76 599 76 599 202 725.5 c 128,-1,2
 328 852 328 852 512 852 c 0,3,4
 697 852 697 852 823 725 c 128,-1,5
 949 598 949 598 949 411 c 0,6,7
 949 204 949 204 821 85.5 c 128,-1,8
 693 -33 693 -33 512 -33 c 256,9,10
 331 -33 331 -33 203.5 87.5 c 128,-1,11
 76 208 76 208 76 411 c 0,0,1
242 406 m 0,12,13
 242 188 242 188 313 100.5 c 128,-1,14
 384 13 384 13 512 13 c 0,15,16
 643 13 643 13 712.5 100.5 c 128,-1,17
 782 188 782 188 782 406 c 0,18,19
 782 622 782 622 713 714 c 128,-1,20
 644 806 644 806 512 806 c 0,21,22
 381 806 381 806 311.5 714.5 c 128,-1,23
 242 623 242 623 242 406 c 0,12,13
EndSplineSet
Substitution2: "<21,0> Lower Case Numbers lookup 8 subtable" o
Substitution2: "<21,1> Upper Case Numbers lookup 7 subtable" o
EndChar

StartChar: p
Encoding: 112 112 48
Width: 1067
Flags: W
LayerCount: 2
Fore
SplineSet
253 852 m 1,0,-1
 280 852 l 1,1,2
 297 796 297 796 297 717 c 1,3,4
 361 785 361 785 434.5 818.5 c 128,-1,5
 508 852 508 852 590 852 c 0,6,7
 760 852 760 852 873 732.5 c 128,-1,8
 986 613 986 613 986 417 c 0,9,10
 986 225 986 225 872.5 96 c 128,-1,11
 759 -33 759 -33 574 -33 c 0,12,13
 498 -33 498 -33 428.5 -2.5 c 128,-1,14
 359 28 359 28 297 88 c 1,15,-1
 297 -223 l 2,16,17
 297 -365 297 -365 302.5 -396 c 128,-1,18
 308 -427 308 -427 334 -442.5 c 128,-1,19
 360 -458 360 -458 431 -458 c 1,20,-1
 431 -504 l 1,21,-1
 3 -504 l 1,22,-1
 3 -458 l 1,23,-1
 33 -458 l 2,24,25
 104 -458 104 -458 125.5 -437.5 c 128,-1,26
 147 -417 147 -417 150.5 -388.5 c 128,-1,27
 154 -360 154 -360 154 -223 c 2,28,-1
 154 521 l 2,29,30
 154 652 154 652 150.5 686 c 128,-1,31
 147 720 147 720 122 738 c 128,-1,32
 97 756 97 756 33 756 c 2,33,-1
 3 756 l 1,34,-1
 3 802 l 1,35,36
 102 812 102 812 253 852 c 1,0,-1
297 154 m 1,37,38
 351 88 351 88 411.5 54.5 c 128,-1,39
 472 21 472 21 539 21 c 0,40,41
 652 21 652 21 736 118 c 128,-1,42
 820 215 820 215 820 427 c 0,43,44
 820 611 820 611 739 702 c 128,-1,45
 658 793 658 793 546 793 c 0,46,47
 477 793 477 793 415 758 c 128,-1,48
 353 723 353 723 297 652 c 1,49,-1
 297 154 l 1,37,38
EndSplineSet
Substitution2: "<21,0> Lower Case Numbers lookup 8 subtable" p
Substitution2: "<21,1> Upper Case Numbers lookup 7 subtable" p
EndChar

StartChar: q
Encoding: 113 113 49
Width: 1067
Flags: W
LayerCount: 2
Fore
SplineSet
875 852 m 1,0,-1
 908 852 l 1,1,-1
 908 -223 l 2,2,3
 908 -354 908 -354 911.5 -388 c 128,-1,4
 915 -422 915 -422 940 -440 c 128,-1,5
 965 -458 965 -458 1029 -458 c 2,6,-1
 1051 -458 l 1,7,-1
 1051 -504 l 1,8,-1
 610 -504 l 1,9,-1
 610 -458 l 1,10,-1
 643 -458 l 2,11,12
 703 -458 703 -458 728.5 -442 c 128,-1,13
 754 -426 754 -426 759 -395.5 c 128,-1,14
 764 -365 764 -365 764 -223 c 2,15,-1
 764 70 l 1,16,17
 692 19 692 19 618.5 -7 c 128,-1,18
 545 -33 545 -33 469 -33 c 0,19,20
 298 -33 298 -33 184.5 84 c 128,-1,21
 71 201 71 201 71 396 c 0,22,23
 71 601 71 601 197.5 726.5 c 128,-1,24
 324 852 324 852 483 852 c 0,25,26
 550 852 550 852 620.5 825.5 c 128,-1,27
 691 799 691 799 764 745 c 1,28,29
 819 781 819 781 875 852 c 1,0,-1
764 683 m 1,30,31
 705 737 705 737 642.5 764 c 128,-1,32
 580 791 580 791 515 791 c 0,33,34
 401 791 401 791 319 702 c 128,-1,35
 237 613 237 613 237 387 c 0,36,37
 237 204 237 204 307.5 111.5 c 128,-1,38
 378 19 378 19 503 19 c 0,39,40
 570 19 570 19 635 43.5 c 128,-1,41
 700 68 700 68 764 117 c 1,42,-1
 764 683 l 1,30,31
EndSplineSet
Substitution2: "<21,0> Lower Case Numbers lookup 8 subtable" q
Substitution2: "<21,1> Upper Case Numbers lookup 7 subtable" q
EndChar

StartChar: r
Encoding: 114 114 50
Width: 747
Flags: W
LayerCount: 2
Fore
SplineSet
341 643 m 1,0,1
 375 732 375 732 451.5 792 c 128,-1,2
 528 852 528 852 601 852 c 0,3,4
 667 852 667 852 705 811 c 128,-1,5
 743 770 743 770 743 727 c 0,6,7
 743 698 743 698 723.5 677 c 128,-1,8
 704 656 704 656 676 656 c 0,9,10
 626 656 626 656 600 730 c 0,11,12
 582 780 582 780 546 780 c 0,13,14
 503 780 503 780 443 721.5 c 128,-1,15
 383 663 383 663 366 600 c 128,-1,16
 349 537 349 537 349 427 c 2,17,-1
 349 281 l 2,18,19
 349 150 349 150 352.5 116 c 128,-1,20
 356 82 356 82 381 64 c 128,-1,21
 406 46 406 46 470 46 c 2,22,-1
 498 46 l 1,23,-1
 498 0 l 1,24,-1
 63 0 l 1,25,-1
 63 46 l 1,26,-1
 84 46 l 2,27,28
 144 46 144 46 169.5 62.5 c 128,-1,29
 195 79 195 79 200 109 c 128,-1,30
 205 139 205 139 205 281 c 2,31,-1
 205 512 l 2,32,33
 205 644 205 644 201.5 677.5 c 128,-1,34
 198 711 198 711 173 729.5 c 128,-1,35
 148 748 148 748 84 748 c 2,36,-1
 63 748 l 1,37,-1
 63 793 l 1,38,39
 157 804 157 804 309 852 c 1,40,41
 338 773 338 773 341 643 c 1,0,1
EndSplineSet
Substitution2: "<21,0> Lower Case Numbers lookup 8 subtable" r
Substitution2: "<21,1> Upper Case Numbers lookup 7 subtable" r
EndChar

StartChar: s
Encoding: 115 115 51
Width: 683
Flags: W
LayerCount: 2
Fore
SplineSet
83 -26 m 1,0,-1
 83 243 l 1,1,-1
 122 243 l 1,2,3
 190 10 190 10 365 10 c 0,4,5
 441 10 441 10 478.5 56 c 128,-1,6
 516 102 516 102 516 157 c 0,7,8
 516 221 516 221 476 262 c 0,9,10
 435 303 435 303 317 361 c 0,11,12
 193 422 193 422 139 481 c 0,13,14
 85 539 85 539 85 624 c 0,15,16
 85 705 85 705 143 778.5 c 128,-1,17
 201 852 201 852 306 852 c 0,18,19
 413 852 413 852 483 765 c 1,20,21
 498 780 498 780 522 838 c 1,22,-1
 559 838 l 1,23,-1
 559 585 l 1,24,-1
 522 585 l 1,25,26
 502 676 502 676 444.5 741.5 c 128,-1,27
 387 807 387 807 309 807 c 0,28,29
 249 807 249 807 212 770 c 128,-1,30
 175 733 175 733 175 684 c 0,31,32
 175 630 175 630 216 591 c 0,33,34
 256 551 256 551 369 500 c 0,35,36
 539 423 539 423 577 350 c 0,37,38
 615 276 615 276 615 208 c 0,39,40
 615 101 615 101 544.5 34 c 128,-1,41
 474 -33 474 -33 367 -33 c 0,42,43
 254 -33 254 -33 166 60 c 1,44,45
 139 30 139 30 122 -26 c 1,46,-1
 83 -26 l 1,0,-1
EndSplineSet
Substitution2: "<21,0> Lower Case Numbers lookup 8 subtable" s
Substitution2: "<21,1> Upper Case Numbers lookup 7 subtable" s
EndChar

StartChar: t
Encoding: 116 116 52
Width: 597
Flags: W
LayerCount: 2
Fore
SplineSet
562 773 m 1,0,-1
 315 773 l 1,1,-1
 315 278 l 2,2,3
 315 164 315 164 325 124.5 c 128,-1,4
 335 85 335 85 367.5 61 c 128,-1,5
 400 37 400 37 437 37 c 0,6,7
 509 37 509 37 562 119 c 1,8,-1
 594 100 l 1,9,10
 563 34 563 34 502.5 0.5 c 128,-1,11
 442 -33 442 -33 380 -33 c 0,12,13
 308 -33 308 -33 253.5 9.5 c 128,-1,14
 199 52 199 52 185.5 109 c 128,-1,15
 172 166 172 166 172 309 c 2,16,-1
 172 773 l 1,17,-1
 53 773 l 1,18,-1
 53 819 l 1,19,20
 135 821 135 821 200 888 c 128,-1,21
 265 955 265 955 283 1076 c 1,22,-1
 315 1076 l 1,23,-1
 315 819 l 1,24,-1
 562 819 l 1,25,-1
 562 773 l 1,0,-1
EndSplineSet
Substitution2: "<21,0> Lower Case Numbers lookup 8 subtable" t
Substitution2: "<21,1> Upper Case Numbers lookup 7 subtable" t
EndChar

StartChar: u
Encoding: 117 117 53
Width: 1067
Flags: W
LayerCount: 2
Fore
SplineSet
890 819 m 1,0,-1
 890 282 l 2,1,2
 890 148 890 148 894 114 c 128,-1,3
 898 80 898 80 923.5 63 c 128,-1,4
 949 46 949 46 1015 46 c 1,5,-1
 1015 0 l 1,6,7
 863 -2 863 -2 793 -32 c 1,8,-1
 781 -32 l 1,9,10
 749 23 749 23 747 158 c 1,11,12
 686 63 686 63 607.5 15 c 128,-1,13
 529 -33 529 -33 434 -33 c 0,14,15
 352 -33 352 -33 289 4.5 c 128,-1,16
 226 42 226 42 202.5 96 c 128,-1,17
 179 150 179 150 179 259 c 2,18,-1
 179 538 l 2,19,20
 179 680 179 680 174 711.5 c 128,-1,21
 169 743 169 743 142.5 758 c 128,-1,22
 116 773 116 773 45 773 c 1,23,-1
 45 819 l 1,24,-1
 323 819 l 1,25,-1
 323 251 l 2,26,27
 323 167 323 167 333 129 c 128,-1,28
 343 91 343 91 384 62.5 c 128,-1,29
 425 34 425 34 479 34 c 0,30,31
 556 34 556 34 626 84.5 c 128,-1,32
 696 135 696 135 721.5 191.5 c 128,-1,33
 747 248 747 248 747 353 c 2,34,-1
 747 538 l 2,35,36
 747 672 747 672 744 701 c 128,-1,37
 741 730 741 730 718.5 751.5 c 128,-1,38
 696 773 696 773 625 773 c 2,39,-1
 604 773 l 1,40,-1
 604 819 l 1,41,-1
 890 819 l 1,0,-1
EndSplineSet
Substitution2: "<21,0> Lower Case Numbers lookup 8 subtable" u
Substitution2: "<21,1> Upper Case Numbers lookup 7 subtable" u
EndChar

StartChar: v
Encoding: 118 118 54
Width: 939
Flags: W
LayerCount: 2
Fore
SplineSet
497 -33 m 1,0,-1
 439 -33 l 1,1,-1
 148 624 l 2,2,3
 105 719 105 719 80 745 c 128,-1,4
 55 771 55 771 -2 773 c 1,5,-1
 -2 819 l 1,6,-1
 368 819 l 1,7,-1
 368 773 l 1,8,9
 307 773 307 773 284.5 763 c 128,-1,10
 262 753 262 753 262 725 c 0,11,12
 262 703 262 703 302 618 c 2,13,-1
 523 121 l 1,14,-1
 722 564 l 2,15,16
 769 670 769 670 769 702 c 0,17,18
 769 769 769 769 669 773 c 1,19,-1
 669 819 l 1,20,-1
 945 819 l 1,21,-1
 945 773 l 1,22,23
 894 770 894 770 859.5 730.5 c 128,-1,24
 825 691 825 691 763 553 c 2,25,-1
 497 -33 l 1,0,-1
EndSplineSet
Substitution2: "<21,0> Lower Case Numbers lookup 8 subtable" v
Substitution2: "<21,1> Upper Case Numbers lookup 7 subtable" v
EndChar

StartChar: w
Encoding: 119 119 55
Width: 1387
Flags: W
LayerCount: 2
Fore
SplineSet
983 -32 m 1,0,-1
 938 -32 l 1,1,-1
 694 618 l 1,2,-1
 445 -32 l 1,3,-1
 401 -32 l 1,4,-1
 151 618 l 2,5,6
 108 729 108 729 87 751 c 128,-1,7
 66 773 66 773 3 773 c 1,8,-1
 3 819 l 1,9,-1
 377 819 l 1,10,-1
 377 773 l 1,11,12
 314 773 314 773 291 761.5 c 128,-1,13
 268 750 268 750 268 722 c 0,14,15
 268 702 268 702 307 605 c 2,16,-1
 473 166 l 1,17,-1
 727 819 l 1,18,-1
 766 819 l 1,19,-1
 1012 166 l 1,20,-1
 1192 631 l 2,21,22
 1221 705 1221 705 1221 720 c 0,23,24
 1221 769 1221 769 1120 773 c 1,25,-1
 1120 819 l 1,26,-1
 1386 819 l 1,27,-1
 1386 773 l 1,28,29
 1338 772 1338 772 1310.5 754.5 c 128,-1,30
 1283 737 1283 737 1260 676 c 2,31,-1
 1238 618 l 1,32,-1
 983 -32 l 1,0,-1
EndSplineSet
Substitution2: "<21,0> Lower Case Numbers lookup 8 subtable" w
Substitution2: "<21,1> Upper Case Numbers lookup 7 subtable" w
EndChar

StartChar: x
Encoding: 120 120 56
Width: 981
Flags: W
LayerCount: 2
Fore
SplineSet
549 465 m 1,0,-1
 779 176 l 2,1,2
 839 101 839 101 878.5 74.5 c 128,-1,3
 918 48 918 48 973 46 c 1,4,-1
 973 0 l 1,5,-1
 564 0 l 1,6,-1
 564 46 l 1,7,8
 665 46 665 46 665 85 c 0,9,10
 665 101 665 101 619 154 c 2,11,-1
 457 355 l 1,12,-1
 307 177 l 2,13,14
 252 113 252 113 252 97 c 0,15,16
 252 47 252 47 363 46 c 1,17,-1
 363 0 l 1,18,-1
 26 0 l 1,19,-1
 26 46 l 1,20,21
 70 46 70 46 123 69 c 128,-1,22
 176 92 176 92 260 191 c 2,23,-1
 429 391 l 1,24,-1
 248 620 l 2,25,26
 171 718 171 718 131 745.5 c 128,-1,27
 91 773 91 773 37 773 c 1,28,-1
 37 819 l 1,29,-1
 423 819 l 1,30,-1
 423 773 l 1,31,32
 340 773 340 773 340 736 c 0,33,34
 340 719 340 719 377 675 c 2,35,-1
 521 497 l 1,36,-1
 654 653 l 2,37,38
 699 707 699 707 699 720 c 0,39,40
 699 773 699 773 589 773 c 1,41,-1
 589 819 l 1,42,-1
 914 819 l 1,43,-1
 914 773 l 1,44,45
 816 770 816 770 711 650 c 2,46,-1
 549 465 l 1,0,-1
EndSplineSet
Substitution2: "<21,0> Lower Case Numbers lookup 8 subtable" x
Substitution2: "<21,1> Upper Case Numbers lookup 7 subtable" x
EndChar

StartChar: y
Encoding: 121 121 57
Width: 939
Flags: W
LayerCount: 2
Fore
SplineSet
531 155 m 1,0,-1
 721 610 l 2,1,2
 762 710 762 710 762 721 c 0,3,4
 762 771 762 771 651 773 c 1,5,-1
 651 819 l 1,6,-1
 939 819 l 1,7,-1
 939 773 l 1,8,9
 872 770 872 770 841 737.5 c 128,-1,10
 810 705 810 705 764 594 c 2,11,-1
 399 -287 l 2,12,13
 347 -413 347 -413 307 -458.5 c 128,-1,14
 267 -504 267 -504 219 -504 c 0,15,16
 154 -504 154 -504 154 -445 c 0,17,18
 154 -377 154 -377 258 -330 c 0,19,20
 319 -303 319 -303 339.5 -284 c 128,-1,21
 360 -265 360 -265 380 -215 c 2,22,-1
 458 -20 l 1,23,-1
 150 640 l 2,24,25
 109 727 109 727 82 750 c 128,-1,26
 55 773 55 773 -10 773 c 1,27,-1
 -10 819 l 1,28,-1
 366 819 l 1,29,-1
 366 773 l 1,30,31
 267 770 267 770 267 732 c 0,32,33
 267 717 267 717 306 634 c 2,34,-1
 531 155 l 1,0,-1
EndSplineSet
Substitution2: "<21,0> Lower Case Numbers lookup 8 subtable" y
Substitution2: "<21,1> Upper Case Numbers lookup 7 subtable" y
EndChar

StartChar: z
Encoding: 122 122 58
Width: 875
Flags: W
LayerCount: 2
Fore
SplineSet
53 0 m 1,0,-1
 53 31 l 1,1,-1
 596 773 l 1,2,-1
 298 773 l 2,3,4
 241 773 241 773 220.5 765.5 c 128,-1,5
 200 758 200 758 171.5 717.5 c 128,-1,6
 143 677 143 677 114 592 c 1,7,-1
 77 592 l 1,8,-1
 90 819 l 1,9,-1
 776 819 l 1,10,-1
 776 783 l 1,11,-1
 236 46 l 1,12,-1
 460 46 l 2,13,14
 569 46 569 46 606 58 c 128,-1,15
 643 70 643 70 679 117.5 c 128,-1,16
 715 165 715 165 751 261 c 1,17,-1
 791 261 l 1,18,-1
 767 0 l 1,19,-1
 53 0 l 1,0,-1
EndSplineSet
Substitution2: "<21,0> Lower Case Numbers lookup 8 subtable" z
Substitution2: "<21,1> Upper Case Numbers lookup 7 subtable" z
EndChar

StartChar: braceleft
Encoding: 123 123 59
Width: 981
Flags: W
LayerCount: 2
Fore
SplineSet
210 422 m 1,0,-1
 210 461 l 1,1,2
 311 478 311 478 374 537.5 c 128,-1,3
 437 597 437 597 437 673 c 0,4,5
 437 725 437 725 413 826 c 0,6,7
 390 919 390 919 390 988 c 0,8,9
 390 1137 390 1137 499.5 1249 c 128,-1,10
 609 1361 609 1361 768 1381 c 1,11,-1
 768 1343 l 1,12,13
 651 1325 651 1325 593 1254.5 c 128,-1,14
 535 1184 535 1184 535 1102 c 0,15,16
 535 1040 535 1040 554 951 c 0,17,18
 575 845 575 845 575 780 c 0,19,20
 575 660 575 660 493 574 c 128,-1,21
 411 488 411 488 292 444 c 1,22,23
 424 394 424 394 500 302.5 c 128,-1,24
 576 211 576 211 576 103 c 0,25,26
 576 42 576 42 554 -65 c 0,27,28
 536 -155 536 -155 536 -215 c 0,29,30
 536 -405 536 -405 768 -463 c 1,31,-1
 768 -498 l 1,32,33
 608 -480 608 -480 500 -365.5 c 128,-1,34
 392 -251 392 -251 392 -107 c 0,35,36
 392 -39 392 -39 413 51 c 0,37,38
 438 156 438 156 438 205 c 0,39,40
 438 277 438 277 382 339.5 c 128,-1,41
 326 402 326 402 210 422 c 1,0,-1
EndSplineSet
Substitution2: "<21,0> Lower Case Numbers lookup 8 subtable" braceleft
Substitution2: "<21,1> Upper Case Numbers lookup 7 subtable" braceleft
EndChar

StartChar: bar
Encoding: 124 124 60
Width: 1045
Flags: W
LayerCount: 2
Fore
SplineSet
468 1375 m 1,0,-1
 577 1375 l 1,1,-1
 577 -504 l 1,2,-1
 468 -504 l 1,3,-1
 468 1375 l 1,0,-1
EndSplineSet
Substitution2: "<21,0> Lower Case Numbers lookup 8 subtable" bar
Substitution2: "<21,1> Upper Case Numbers lookup 7 subtable" bar
EndChar

StartChar: braceright
Encoding: 125 125 61
Width: 981
Flags: W
LayerCount: 2
Fore
SplineSet
771 461 m 1,0,-1
 771 422 l 1,1,2
 672 406 672 406 608 346 c 128,-1,3
 544 286 544 286 544 210 c 0,4,5
 544 158 544 158 568 57 c 0,6,7
 591 -36 591 -36 591 -105 c 0,8,9
 591 -254 591 -254 481 -366.5 c 128,-1,10
 371 -479 371 -479 213 -498 c 1,11,-1
 213 -460 l 1,12,13
 330 -442 330 -442 387.5 -371.5 c 128,-1,14
 445 -301 445 -301 445 -219 c 0,15,16
 445 -157 445 -157 427 -68 c 0,17,18
 406 38 406 38 406 103 c 0,19,20
 406 222 406 222 488 309 c 128,-1,21
 570 396 570 396 689 439 c 1,22,23
 558 488 558 488 481.5 579.5 c 128,-1,24
 405 671 405 671 405 780 c 0,25,26
 405 841 405 841 427 948 c 0,27,28
 445 1038 445 1038 445 1098 c 0,29,30
 445 1289 445 1289 213 1346 c 1,31,-1
 213 1381 l 1,32,33
 373 1362 373 1362 481 1248 c 128,-1,34
 589 1134 589 1134 589 990 c 0,35,36
 589 922 589 922 568 832 c 0,37,38
 543 727 543 727 543 679 c 0,39,40
 543 606 543 606 599 543.5 c 128,-1,41
 655 481 655 481 771 461 c 1,0,-1
EndSplineSet
Substitution2: "<21,0> Lower Case Numbers lookup 8 subtable" braceright
Substitution2: "<21,1> Upper Case Numbers lookup 7 subtable" braceright
EndChar

StartChar: asciitilde
Encoding: 126 126 62
Width: 1365
Flags: W
LayerCount: 2
Fore
SplineSet
1171 798 m 1,0,-1
 1219 798 l 1,1,2
 1216 666 1216 666 1145 588 c 128,-1,3
 1074 510 1074 510 969 510 c 0,4,5
 917 510 917 510 859.5 528 c 128,-1,6
 802 546 802 546 595 631 c 0,7,8
 442 694 442 694 376 694 c 0,9,10
 229 694 229 694 194 512 c 1,11,-1
 147 512 l 1,12,13
 152 658 152 658 225 729 c 128,-1,14
 298 800 298 800 387 800 c 0,15,16
 483 800 483 800 768 678 c 0,17,18
 920 613 920 613 987 613 c 0,19,20
 1072 613 1072 613 1117.5 665.5 c 128,-1,21
 1163 718 1163 718 1171 798 c 1,0,-1
EndSplineSet
Substitution2: "<21,0> Lower Case Numbers lookup 8 subtable" asciitilde
Substitution2: "<21,1> Upper Case Numbers lookup 7 subtable" asciitilde
EndChar

StartChar: Aring
Encoding: 197 197 64
Width: 1387
Flags: W
LayerCount: 2
Fore
SplineSet
663 1327 m 1,0,1
 593 1343 593 1343 551.5 1396 c 128,-1,2
 510 1449 510 1449 510 1514 c 0,3,4
 510 1593 510 1593 565.5 1649 c 128,-1,5
 621 1705 621 1705 701 1705 c 0,6,7
 780 1705 780 1705 835.5 1648.5 c 128,-1,8
 891 1592 891 1592 891 1514 c 0,9,10
 891 1449 891 1449 850.5 1396.5 c 128,-1,11
 810 1344 810 1344 742 1328 c 1,12,-1
 1175 298 l 1,13,-1
 1237 156 l 2,14,15
 1258 108 1258 108 1293.5 80.5 c 128,-1,16
 1329 53 1329 53 1400 46 c 1,17,-1
 1400 0 l 1,18,-1
 867 0 l 1,19,-1
 867 46 l 1,20,21
 965 46 965 46 999.5 60.5 c 128,-1,22
 1034 75 1034 75 1034 118 c 0,23,24
 1034 140 1034 140 988 249 c 2,25,-1
 884 500 l 1,26,-1
 369 500 l 1,27,-1
 334 414 l 2,28,29
 256 227 256 227 256 170 c 0,30,31
 256 109 256 109 297.5 77.5 c 128,-1,32
 339 46 339 46 404 46 c 1,33,-1
 404 0 l 1,34,-1
 1 0 l 1,35,-1
 1 46 l 1,36,37
 91 60 91 60 135 109.5 c 128,-1,38
 179 159 179 159 241 318 c 0,39,40
 246 332 246 332 289 434 c 2,41,-1
 663 1327 l 1,0,1
562 1514 m 0,42,43
 562 1458 562 1458 602 1416.5 c 128,-1,44
 642 1375 642 1375 701 1375 c 0,45,46
 758 1375 758 1375 798.5 1416 c 128,-1,47
 839 1457 839 1457 839 1514 c 256,48,49
 839 1571 839 1571 798.5 1612 c 128,-1,50
 758 1653 758 1653 701 1653 c 0,51,52
 643 1653 643 1653 602.5 1612 c 128,-1,53
 562 1571 562 1571 562 1514 c 0,42,43
867 545 m 1,54,-1
 627 1123 l 1,55,-1
 388 545 l 1,56,-1
 867 545 l 1,54,-1
EndSplineSet
Substitution2: "<21,0> Lower Case Numbers lookup 8 subtable" Aring
Substitution2: "<21,1> Upper Case Numbers lookup 7 subtable" Aring
EndChar

StartChar: Ccedilla
Encoding: 199 199 65
Width: 1472
Flags: W
LayerCount: 2
Fore
SplineSet
753 -25 m 1,0,1
 484 -25 484 -25 294.5 159.5 c 128,-1,2
 105 344 105 344 105 654 c 0,3,4
 105 854 105 854 191 1031.5 c 128,-1,5
 277 1209 277 1209 431 1295 c 128,-1,6
 585 1381 585 1381 769 1381 c 0,7,8
 921 1381 921 1381 1044.5 1318.5 c 128,-1,9
 1168 1256 1168 1256 1229 1180 c 1,10,11
 1272 1265 1272 1265 1281 1356 c 1,12,-1
 1325 1356 l 1,13,-1
 1337 842 l 1,14,-1
 1294 842 l 1,15,16
 1249 1116 1249 1116 1110.5 1223 c 128,-1,17
 972 1330 972 1330 798 1330 c 0,18,19
 585 1330 585 1330 459.5 1157 c 128,-1,20
 334 984 334 984 334 662 c 0,21,22
 334 357 334 357 471 194.5 c 128,-1,23
 608 32 608 32 812 32 c 0,24,25
 921 32 921 32 1035 85 c 128,-1,26
 1149 138 1149 138 1215.5 264.5 c 128,-1,27
 1282 391 1282 391 1294 509 c 1,28,-1
 1337 509 l 1,29,-1
 1337 34 l 1,30,-1
 1294 34 l 1,31,32
 1276 115 1276 115 1229 177 c 1,33,34
 1059 -15 1059 -15 800 -25 c 1,35,-1
 791 -135 l 1,36,37
 875 -135 875 -135 939.5 -178 c 128,-1,38
 1004 -221 1004 -221 1004 -302 c 256,39,40
 1004 -383 1004 -383 931 -432.5 c 128,-1,41
 858 -482 858 -482 750 -482 c 0,42,43
 645 -482 645 -482 568 -443 c 1,44,-1
 586 -399 l 1,45,46
 656 -435 656 -435 719 -435 c 256,47,48
 782 -435 782 -435 823.5 -403 c 128,-1,49
 865 -371 865 -371 865 -314 c 0,50,51
 865 -262 865 -262 830 -234 c 128,-1,52
 795 -206 795 -206 748 -206 c 0,53,54
 741 -206 741 -206 727 -207 c 1,55,-1
 753 -25 l 1,0,1
EndSplineSet
Substitution2: "<21,0> Lower Case Numbers lookup 8 subtable" Ccedilla
Substitution2: "<21,1> Upper Case Numbers lookup 7 subtable" Ccedilla
EndChar

StartChar: ccedilla
Encoding: 231 231 76
Width: 875
Flags: W
LayerCount: 2
Fore
SplineSet
493 -33 m 1,0,-1
 478 -119 l 1,1,2
 575 -119 575 -119 628.5 -168 c 128,-1,3
 682 -217 682 -217 682 -288 c 0,4,5
 682 -370 682 -370 613 -427 c 128,-1,6
 544 -484 544 -484 420 -484 c 0,7,8
 331 -484 331 -484 264 -459 c 1,9,-1
 278 -419 l 1,10,11
 337 -438 337 -438 398 -438 c 0,12,13
 481 -438 481 -438 521.5 -402.5 c 128,-1,14
 562 -367 562 -367 562 -318 c 0,15,16
 562 -262 562 -262 519 -232 c 128,-1,17
 476 -202 476 -202 414 -202 c 1,18,-1
 448 -33 l 1,19,20
 278 -17 278 -17 175.5 103.5 c 128,-1,21
 73 224 73 224 73 399 c 0,22,23
 73 598 73 598 201.5 725 c 128,-1,24
 330 852 330 852 507 852 c 0,25,26
 613 852 613 852 702 805.5 c 128,-1,27
 791 759 791 759 791 691 c 0,28,29
 791 665 791 665 774.5 643.5 c 128,-1,30
 758 622 758 622 727 622 c 0,31,32
 661 622 661 622 646 698 c 0,33,34
 634 756 634 756 609 780 c 0,35,36
 583 803 583 803 508 803 c 0,37,38
 374 803 374 803 306.5 709.5 c 128,-1,39
 239 616 239 616 239 429 c 0,40,41
 239 248 239 248 308.5 133.5 c 128,-1,42
 378 19 378 19 531 19 c 0,43,44
 729 19 729 19 783 199 c 1,45,-1
 827 199 l 1,46,47
 764 -24 764 -24 493 -33 c 1,0,-1
EndSplineSet
Substitution2: "<21,0> Lower Case Numbers lookup 8 subtable" ccedilla
Substitution2: "<21,1> Upper Case Numbers lookup 7 subtable" ccedilla
Ligature2: "<27,0> Canonical Decomposition in Latin lookup 1 subtable" c cedillacmb
EndChar

StartChar: degree
Encoding: 176 176 95
Width: 811
Flags: W
LayerCount: 2
Fore
SplineSet
405 1345 m 0,0,1
 532 1345 532 1345 622.5 1255 c 128,-1,2
 713 1165 713 1165 713 1038 c 256,3,4
 713 911 713 911 623 821 c 128,-1,5
 533 731 533 731 405 731 c 0,6,7
 278 731 278 731 188 821 c 128,-1,8
 98 911 98 911 98 1038 c 0,9,10
 98 1170 98 1170 189.5 1257.5 c 128,-1,11
 281 1345 281 1345 405 1345 c 0,0,1
405 1262 m 0,12,13
 315 1262 315 1262 248.5 1198.5 c 128,-1,14
 182 1135 182 1135 182 1039 c 0,15,16
 182 946 182 946 247 881 c 128,-1,17
 312 816 312 816 405 816 c 256,18,19
 498 816 498 816 563 881.5 c 128,-1,20
 628 947 628 947 628 1039 c 256,21,22
 628 1131 628 1131 562 1196.5 c 128,-1,23
 496 1262 496 1262 405 1262 c 0,12,13
EndSplineSet
Substitution2: "<21,0> Lower Case Numbers lookup 8 subtable" degree
Substitution2: "<21,1> Upper Case Numbers lookup 7 subtable" degree
EndChar

StartChar: cent
Encoding: 162 162 96
Width: 875
Flags: W
LayerCount: 2
Fore
SplineSet
304 8 m 1,0,-1
 166 -384 l 1,1,-1
 122 -384 l 1,2,-1
 267 27 l 1,3,4
 176 82 176 82 124.5 181.5 c 128,-1,5
 73 281 73 281 73 400 c 0,6,7
 73 602 73 602 202 726.5 c 128,-1,8
 331 851 331 851 507 851 c 0,9,10
 526 851 526 851 556 848 c 1,11,-1
 695 1243 l 1,12,-1
 739 1243 l 1,13,-1
 597 841 l 1,14,15
 689 821 689 821 740 780.5 c 128,-1,16
 791 740 791 740 791 691 c 0,17,18
 791 666 791 666 774 644.5 c 128,-1,19
 757 623 757 623 727 623 c 0,20,21
 661 623 661 623 646 700 c 0,22,23
 629 780 629 780 580 794 c 1,24,-1
 335 98 l 1,25,26
 406 20 406 20 532 20 c 0,27,28
 729 20 729 20 783 200 c 1,29,-1
 827 200 l 1,30,31
 759 -33 759 -33 487 -33 c 0,32,33
 390 -33 390 -33 304 8 c 1,0,-1
540 802 m 1,34,35
 523 804 523 804 507 804 c 0,36,37
 373 804 373 804 306 710.5 c 128,-1,38
 239 617 239 617 239 430 c 0,39,40
 239 249 239 249 304 138 c 1,41,-1
 540 802 l 1,34,35
EndSplineSet
Substitution2: "<21,0> Lower Case Numbers lookup 8 subtable" cent
Substitution2: "<21,1> Upper Case Numbers lookup 7 subtable" cent
EndChar

StartChar: sterling
Encoding: 163 163 97
Width: 1451
Flags: W
LayerCount: 2
Fore
SplineSet
400 243 m 1,0,-1
 435 367 l 2,1,2
 602 964 602 964 776.5 1172.5 c 128,-1,3
 951 1381 951 1381 1165 1381 c 0,4,5
 1281 1381 1281 1381 1354 1336.5 c 128,-1,6
 1427 1292 1427 1292 1427 1234 c 0,7,8
 1427 1175 1427 1175 1374 1175 c 0,9,10
 1337 1175 1337 1175 1299 1235 c 0,11,12
 1239 1331 1239 1331 1127 1331 c 0,13,14
 1044 1331 1044 1331 963.5 1269 c 128,-1,15
 883 1207 883 1207 839.5 1107 c 128,-1,16
 796 1007 796 1007 738 811 c 0,17,18
 640 480 640 480 540 243 c 1,19,-1
 913 243 l 1,20,-1
 896 197 l 1,21,-1
 520 197 l 1,22,23
 472 84 472 84 356 -119 c 1,24,25
 381 -106 381 -106 409.5 -100 c 128,-1,26
 438 -94 438 -94 470 -94 c 0,27,28
 605 -94 605 -94 748 -231 c 0,29,30
 830 -309 830 -309 874 -335 c 128,-1,31
 918 -361 918 -361 973 -361 c 0,32,33
 1050 -361 1050 -361 1114 -309 c 128,-1,34
 1178 -257 1178 -257 1178 -180 c 0,35,36
 1178 -132 1178 -132 1141 -71 c 0,37,38
 1123 -41 1123 -41 1123 -17 c 0,39,40
 1123 6 1123 6 1141.5 22 c 128,-1,41
 1160 38 1160 38 1183 38 c 0,42,43
 1221 38 1221 38 1244.5 1 c 128,-1,44
 1268 -36 1268 -36 1268 -93 c 0,45,46
 1268 -231 1268 -231 1148.5 -343 c 128,-1,47
 1029 -455 1029 -455 893 -455 c 0,48,49
 746 -455 746 -455 584 -287 c 0,50,51
 462 -159 462 -159 385 -159 c 0,52,53
 370 -159 370 -159 354 -163.5 c 128,-1,54
 338 -168 338 -168 321 -178 c 1,55,56
 316 -187 316 -187 297 -228 c 0,57,58
 187 -458 187 -458 109 -458 c 0,59,60
 54 -458 54 -458 54 -405 c 0,61,62
 54 -349 54 -349 121.5 -276 c 128,-1,63
 189 -203 189 -203 281 -145 c 1,64,65
 311 -66 311 -66 386 197 c 1,66,-1
 64 197 l 1,67,-1
 80 243 l 1,68,-1
 400 243 l 1,0,-1
EndSplineSet
Substitution2: "<21,0> Lower Case Numbers lookup 8 subtable" sterling
Substitution2: "<21,1> Upper Case Numbers lookup 7 subtable" sterling
EndChar

StartChar: section
Encoding: 167 167 98
Width: 811
Flags: W
LayerCount: 2
Fore
SplineSet
372 726 m 1,0,1
 368 731 368 731 320 775 c 0,2,3
 131 949 131 949 131 1101 c 0,4,5
 131 1196 131 1196 201.5 1276 c 128,-1,6
 272 1356 272 1356 405 1356 c 0,7,8
 529 1356 529 1356 599.5 1295 c 128,-1,9
 670 1234 670 1234 670 1168 c 0,10,11
 670 1100 670 1100 610 1100 c 0,12,13
 543 1100 543 1100 538 1190 c 0,14,15
 532 1312 532 1312 397 1312 c 0,16,17
 319 1312 319 1312 268.5 1270 c 128,-1,18
 218 1228 218 1228 218 1157 c 0,19,20
 218 1041 218 1041 436 852 c 0,21,22
 561 744 561 744 613 689 c 128,-1,23
 665 634 665 634 699 559.5 c 128,-1,24
 733 485 733 485 733 412 c 0,25,26
 733 277 733 277 653 205.5 c 128,-1,27
 573 134 573 134 476 134 c 0,28,29
 460 134 460 134 443 137 c 1,30,31
 590 11 590 11 630.5 -67 c 128,-1,32
 671 -145 671 -145 671 -223 c 0,33,34
 671 -349 671 -349 596 -420 c 128,-1,35
 521 -491 521 -491 396 -491 c 0,36,37
 279 -491 279 -491 210.5 -433.5 c 128,-1,38
 142 -376 142 -376 142 -306 c 0,39,40
 142 -231 142 -231 203 -231 c 0,41,42
 257 -231 257 -231 269 -322 c 0,43,44
 285 -449 285 -449 406 -449 c 0,45,46
 478 -449 478 -449 531 -408 c 128,-1,47
 584 -367 584 -367 584 -290 c 0,48,49
 584 -207 584 -207 530 -139 c 128,-1,50
 476 -71 476 -71 342 37 c 0,51,52
 166 179 166 179 117 278.5 c 128,-1,53
 68 378 68 378 68 464 c 0,54,55
 68 576 68 576 142 653.5 c 128,-1,56
 216 731 216 731 328 731 c 0,57,58
 350 731 350 731 372 726 c 1,0,1
149 531 m 0,59,60
 149 443 149 443 216.5 353 c 128,-1,61
 284 263 284 263 341 219 c 128,-1,62
 398 175 398 175 472 175 c 0,63,64
 556 175 556 175 607 223 c 128,-1,65
 658 271 658 271 658 338 c 0,66,67
 658 416 658 416 597 502 c 128,-1,68
 536 588 536 588 469.5 637.5 c 128,-1,69
 403 687 403 687 336 687 c 0,70,71
 251 687 251 687 200 642 c 128,-1,72
 149 597 149 597 149 531 c 0,59,60
EndSplineSet
Substitution2: "<21,0> Lower Case Numbers lookup 8 subtable" section
Substitution2: "<21,1> Upper Case Numbers lookup 7 subtable" section
EndChar

StartChar: paragraph
Encoding: 182 182 99
Width: 917
Flags: W
LayerCount: 2
Fore
SplineSet
798 1301 m 1,0,-1
 798 -504 l 1,1,-1
 726 -504 l 1,2,-1
 726 1301 l 1,3,-1
 539 1301 l 1,4,-1
 539 -504 l 1,5,-1
 466 -504 l 1,6,-1
 466 601 l 1,7,8
 -14 607 -14 607 -14 981 c 0,9,10
 -14 1096 -14 1096 41.5 1181.5 c 128,-1,11
 97 1267 97 1267 193.5 1311.5 c 128,-1,12
 290 1356 290 1356 436 1356 c 2,13,-1
 931 1356 l 1,14,-1
 931 1301 l 1,15,-1
 798 1301 l 1,0,-1
EndSplineSet
Substitution2: "<21,0> Lower Case Numbers lookup 8 subtable" paragraph
Substitution2: "<21,1> Upper Case Numbers lookup 7 subtable" paragraph
EndChar

StartChar: germandbls
Encoding: 223 223 100
Width: 1067
Flags: W
LayerCount: 2
Fore
SplineSet
667 757 m 1,0,1
 825 728 825 728 910.5 627 c 128,-1,2
 996 526 996 526 996 368 c 256,3,4
 996 210 996 210 910 99.5 c 128,-1,5
 824 -11 824 -11 672 -11 c 0,6,7
 601 -11 601 -11 562.5 17 c 128,-1,8
 524 45 524 45 524 80 c 0,9,10
 524 132 524 132 574 132 c 0,11,12
 609 132 609 132 654 80 c 0,13,14
 690 39 690 39 725 39 c 0,15,16
 777 39 777 39 803.5 93.5 c 128,-1,17
 830 148 830 148 830 296 c 0,18,19
 830 547 830 547 767 639 c 0,20,21
 703 730 703 730 541 730 c 2,22,-1
 517 730 l 2,23,24
 480 730 480 730 480 753 c 0,25,26
 480 774 480 774 506 774 c 2,27,-1
 520 774 l 2,28,29
 526 773 526 773 531 773 c 0,30,31
 776 773 776 773 776 1039 c 0,32,33
 776 1186 776 1186 720.5 1259.5 c 128,-1,34
 665 1333 665 1333 554 1333 c 0,35,36
 454 1333 454 1333 396.5 1283 c 128,-1,37
 339 1233 339 1233 328 1154.5 c 128,-1,38
 317 1076 317 1076 317 850 c 2,39,-1
 317 281 l 2,40,41
 317 149 317 149 320.5 115 c 128,-1,42
 324 81 324 81 349.5 63.5 c 128,-1,43
 375 46 375 46 440 46 c 1,44,-1
 440 0 l 1,45,-1
 30 0 l 1,46,-1
 30 46 l 1,47,-1
 52 46 l 2,48,49
 123 46 123 46 145 66.5 c 128,-1,50
 167 87 167 87 170 115.5 c 128,-1,51
 173 144 173 144 173 281 c 2,52,-1
 173 849 l 2,53,54
 173 998 173 998 185 1076 c 128,-1,55
 197 1154 197 1154 249 1225.5 c 128,-1,56
 301 1297 301 1297 382.5 1336 c 128,-1,57
 464 1375 464 1375 566 1375 c 0,58,59
 738 1375 738 1375 840 1283.5 c 128,-1,60
 942 1192 942 1192 942 1064 c 0,61,62
 942 950 942 950 869.5 871.5 c 128,-1,63
 797 793 797 793 667 757 c 1,0,1
EndSplineSet
Substitution2: "<21,0> Lower Case Numbers lookup 8 subtable" germandbls
Substitution2: "<21,1> Upper Case Numbers lookup 7 subtable" germandbls
EndChar

StartChar: registered
Encoding: 174 174 101
Width: 1557
Flags: W
LayerCount: 2
Fore
SplineSet
778 1381 m 0,0,1
 962 1381 962 1381 1128 1289 c 128,-1,2
 1294 1197 1294 1197 1391 1030 c 128,-1,3
 1488 863 1488 863 1488 672 c 0,4,5
 1488 378 1488 378 1280 170.5 c 128,-1,6
 1072 -37 1072 -37 778 -37 c 0,7,8
 486 -37 486 -37 277.5 171.5 c 128,-1,9
 69 380 69 380 69 672 c 0,10,11
 69 966 69 966 277.5 1173.5 c 128,-1,12
 486 1381 486 1381 778 1381 c 0,0,1
778 1320 m 0,13,14
 512 1320 512 1320 321.5 1130.5 c 128,-1,15
 131 941 131 941 131 672 c 0,16,17
 131 404 131 404 320.5 214 c 128,-1,18
 510 24 510 24 778 24 c 0,19,20
 1045 24 1045 24 1235.5 214.5 c 128,-1,21
 1426 405 1426 405 1426 672 c 0,22,23
 1426 846 1426 846 1337.5 999 c 128,-1,24
 1249 1152 1249 1152 1097.5 1236 c 128,-1,25
 946 1320 946 1320 778 1320 c 0,13,14
404 1108 m 1,26,-1
 790 1108 l 2,27,28
 926 1108 926 1108 1007 1046 c 128,-1,29
 1088 984 1088 984 1088 884 c 0,30,31
 1088 802 1088 802 1032.5 746.5 c 128,-1,32
 977 691 977 691 865 662 c 1,33,-1
 1074 364 l 2,34,35
 1109 315 1109 315 1134 297 c 128,-1,36
 1159 279 1159 279 1195 276 c 1,37,-1
 1195 242 l 1,38,-1
 1012 242 l 1,39,-1
 717 648 l 1,40,-1
 641 648 l 1,41,-1
 641 339 l 1,42,43
 646 313 646 313 664.5 294.5 c 128,-1,44
 683 276 683 276 759 276 c 1,45,-1
 759 242 l 1,46,-1
 392 242 l 1,47,-1
 392 276 l 1,48,49
 441 276 441 276 463 289 c 128,-1,50
 485 302 485 302 490.5 322 c 128,-1,51
 496 342 496 342 496 414 c 2,52,-1
 496 937 l 2,53,54
 496 1008 496 1008 492 1026 c 128,-1,55
 488 1044 488 1044 469 1058 c 128,-1,56
 450 1072 450 1072 404 1072 c 1,57,-1
 404 1108 l 1,26,-1
641 691 m 1,58,-1
 671 691 l 2,59,60
 797 691 797 691 861.5 740 c 128,-1,61
 926 789 926 789 926 872 c 0,62,63
 926 953 926 953 869 1008.5 c 128,-1,64
 812 1064 812 1064 727 1064 c 0,65,66
 684 1064 684 1064 641 1048 c 1,67,-1
 641 691 l 1,58,-1
EndSplineSet
Substitution2: "<21,0> Lower Case Numbers lookup 8 subtable" registered
Substitution2: "<21,1> Upper Case Numbers lookup 7 subtable" registered
EndChar

StartChar: copyright
Encoding: 169 169 102
Width: 1557
Flags: W
LayerCount: 2
Fore
SplineSet
778 1381 m 0,0,1
 962 1381 962 1381 1128 1289 c 128,-1,2
 1294 1197 1294 1197 1391 1030 c 128,-1,3
 1488 863 1488 863 1488 672 c 0,4,5
 1488 378 1488 378 1280 170.5 c 128,-1,6
 1072 -37 1072 -37 778 -37 c 0,7,8
 486 -37 486 -37 277.5 171.5 c 128,-1,9
 69 380 69 380 69 672 c 0,10,11
 69 966 69 966 277.5 1173.5 c 128,-1,12
 486 1381 486 1381 778 1381 c 0,0,1
778 1320 m 0,13,14
 512 1320 512 1320 321.5 1130.5 c 128,-1,15
 131 941 131 941 131 672 c 0,16,17
 131 404 131 404 320.5 214 c 128,-1,18
 510 24 510 24 778 24 c 0,19,20
 1045 24 1045 24 1235.5 214.5 c 128,-1,21
 1426 405 1426 405 1426 672 c 0,22,23
 1426 846 1426 846 1337.5 999 c 128,-1,24
 1249 1152 1249 1152 1097.5 1236 c 128,-1,25
 946 1320 946 1320 778 1320 c 0,13,14
1129 1128 m 1,26,-1
 1149 848 l 1,27,-1
 1110 848 l 1,28,29
 1038 1084 1038 1084 810 1084 c 0,30,31
 660 1084 660 1084 573 980 c 128,-1,32
 486 876 486 876 486 693 c 0,33,34
 486 488 486 488 574.5 385 c 128,-1,35
 663 282 663 282 819 282 c 0,36,37
 1012 282 1012 282 1129 444 c 1,38,-1
 1166 425 l 1,39,40
 1033 222 1033 222 779 222 c 0,41,42
 580 222 580 222 450 352.5 c 128,-1,43
 320 483 320 483 320 666 c 0,44,45
 320 857 320 857 460.5 992.5 c 128,-1,46
 601 1128 601 1128 819 1128 c 0,47,48
 891 1128 891 1128 1003 1091 c 0,49,50
 1028 1083 1028 1083 1040 1083 c 0,51,52
 1073 1083 1073 1083 1089 1128 c 1,53,-1
 1129 1128 l 1,26,-1
EndSplineSet
Substitution2: "<21,0> Lower Case Numbers lookup 8 subtable" copyright
Substitution2: "<21,1> Upper Case Numbers lookup 7 subtable" copyright
EndChar

StartChar: acute
Encoding: 180 180 103
Width: 683
Flags: W
LayerCount: 2
Fore
SplineSet
203 1002 m 1,0,-1
 170 1002 l 1,1,-1
 320 1235 l 2,2,3
 366 1307 366 1307 392.5 1331.5 c 128,-1,4
 419 1356 419 1356 452 1356 c 0,5,6
 481 1356 481 1356 497 1338.5 c 128,-1,7
 513 1321 513 1321 513 1301 c 0,8,9
 513 1274 513 1274 491.5 1249 c 128,-1,10
 470 1224 470 1224 355 1128 c 2,11,-1
 203 1002 l 1,0,-1
EndSplineSet
Substitution2: "<21,0> Lower Case Numbers lookup 8 subtable" acute
Substitution2: "<21,1> Upper Case Numbers lookup 7 subtable" acute
EndChar

StartChar: dieresis
Encoding: 168 168 104
Width: 683
Flags: W
LayerCount: 2
Fore
SplineSet
76 1182 m 0,0,1
 76 1214 76 1214 99 1239 c 128,-1,2
 122 1264 122 1264 158 1264 c 0,3,4
 192 1264 192 1264 216 1240 c 128,-1,5
 240 1216 240 1216 240 1182 c 256,6,7
 240 1148 240 1148 216 1124 c 128,-1,8
 192 1100 192 1100 158 1100 c 256,9,10
 124 1100 124 1100 100 1124.5 c 128,-1,11
 76 1149 76 1149 76 1182 c 0,0,1
443 1182 m 256,12,13
 443 1216 443 1216 467 1240 c 128,-1,14
 491 1264 491 1264 525 1264 c 256,15,16
 559 1264 559 1264 583 1240 c 128,-1,17
 607 1216 607 1216 607 1182 c 0,18,19
 607 1149 607 1149 582.5 1124.5 c 128,-1,20
 558 1100 558 1100 525 1100 c 0,21,22
 491 1100 491 1100 467 1124 c 128,-1,23
 443 1148 443 1148 443 1182 c 256,12,13
EndSplineSet
Substitution2: "<21,0> Lower Case Numbers lookup 8 subtable" dieresis
Substitution2: "<21,1> Upper Case Numbers lookup 7 subtable" dieresis
EndChar

StartChar: AE
Encoding: 198 198 105
Width: 1813
Flags: W
LayerCount: 2
Fore
SplineSet
818 664 m 1,0,-1
 494 664 l 1,1,-1
 320 309 l 2,2,3
 266 199 266 199 266 157 c 0,4,5
 266 50 266 50 428 46 c 1,6,-1
 428 0 l 1,7,-1
 0 0 l 1,8,-1
 0 46 l 1,9,10
 148 66 148 66 281 339 c 2,11,-1
 660 1112 l 2,12,13
 723 1242 723 1242 723 1261 c 0,14,15
 723 1290 723 1290 695 1300 c 128,-1,16
 667 1310 667 1310 572 1310 c 2,17,-1
 541 1310 l 1,18,-1
 541 1356 l 1,19,-1
 1601 1356 l 1,20,-1
 1635 1021 l 1,21,-1
 1588 1021 l 1,22,23
 1570 1105 1570 1105 1530.5 1181 c 128,-1,24
 1491 1257 1491 1257 1438.5 1283.5 c 128,-1,25
 1386 1310 1386 1310 1269 1310 c 2,26,-1
 1013 1310 l 1,27,-1
 1013 709 l 1,28,-1
 1167 709 l 2,29,30
 1249 709 1249 709 1282.5 724 c 128,-1,31
 1316 739 1316 739 1332.5 783 c 128,-1,32
 1349 827 1349 827 1349 920 c 1,33,-1
 1395 920 l 1,34,-1
 1395 455 l 1,35,-1
 1349 455 l 1,36,37
 1349 584 1349 584 1316 624 c 128,-1,38
 1283 664 1283 664 1171 664 c 2,39,-1
 1013 664 l 1,40,-1
 1013 346 l 2,41,42
 1013 175 1013 175 1022 131.5 c 128,-1,43
 1031 88 1031 88 1065.5 67 c 128,-1,44
 1100 46 1100 46 1217 46 c 2,45,-1
 1308 46 l 2,46,47
 1442 46 1442 46 1506 74 c 128,-1,48
 1570 102 1570 102 1625.5 197 c 128,-1,49
 1681 292 1681 292 1704 411 c 1,50,-1
 1748 411 l 1,51,-1
 1732 0 l 1,52,-1
 615 0 l 1,53,-1
 615 46 l 1,54,-1
 645 46 l 2,55,56
 732 46 732 46 765.5 68 c 128,-1,57
 799 90 799 90 808.5 136.5 c 128,-1,58
 818 183 818 183 818 353 c 2,59,-1
 818 664 l 1,0,-1
818 709 m 1,60,-1
 818 1319 l 1,61,-1
 517 709 l 1,62,-1
 818 709 l 1,60,-1
EndSplineSet
Substitution2: "<21,0> Lower Case Numbers lookup 8 subtable" AE
Substitution2: "<21,1> Upper Case Numbers lookup 7 subtable" AE
EndChar

StartChar: Oslash
Encoding: 216 216 106
Width: 1685
Flags: W
LayerCount: 2
Fore
SplineSet
357 130 m 1,0,1
 105 330 105 330 105 687 c 0,2,3
 105 1000 105 1000 314.5 1190.5 c 128,-1,4
 524 1381 524 1381 839 1381 c 0,5,6
 1106 1381 1106 1381 1308 1243 c 1,7,-1
 1425 1379 l 1,8,-1
 1463 1348 l 1,9,-1
 1347 1214 l 1,10,11
 1581 1018 1581 1018 1581 682 c 0,12,13
 1581 364 1581 364 1377 169.5 c 128,-1,14
 1173 -25 1173 -25 843 -25 c 0,15,16
 583 -25 583 -25 394 103 c 1,17,-1
 282 -28 l 1,18,-1
 247 0 l 1,19,-1
 357 130 l 1,0,1
436 223 m 1,20,-1
 1230 1151 l 1,21,22
 1090 1331 1090 1331 840 1331 c 0,23,24
 670 1331 670 1331 556.5 1252 c 128,-1,25
 443 1173 443 1173 388.5 1025.5 c 128,-1,26
 334 878 334 878 334 680 c 0,27,28
 334 391 334 391 436 223 c 1,20,-1
1257 1109 m 1,29,-1
 464 185 l 1,30,31
 599 25 599 25 856 25 c 0,32,33
 1084 25 1084 25 1217.5 188.5 c 128,-1,34
 1351 352 1351 352 1351 681 c 0,35,36
 1351 936 1351 936 1257 1109 c 1,29,-1
EndSplineSet
Substitution2: "<21,0> Lower Case Numbers lookup 8 subtable" Oslash
Substitution2: "<21,1> Upper Case Numbers lookup 7 subtable" Oslash
EndChar

StartChar: plusminus
Encoding: 177 177 107
Width: 1365
Flags: W
LayerCount: 2
Fore
SplineSet
142 835 m 1,0,-1
 627 835 l 1,1,-1
 627 1323 l 1,2,-1
 735 1323 l 1,3,-1
 735 835 l 1,4,-1
 1224 835 l 1,5,-1
 1224 727 l 1,6,-1
 735 727 l 1,7,-1
 735 242 l 1,8,-1
 627 242 l 1,9,-1
 627 727 l 1,10,-1
 142 727 l 1,11,-1
 142 835 l 1,0,-1
142 108 m 1,12,-1
 1224 108 l 1,13,-1
 1224 0 l 1,14,-1
 142 0 l 1,15,-1
 142 108 l 1,12,-1
EndSplineSet
Substitution2: "<21,0> Lower Case Numbers lookup 8 subtable" plusminus
Substitution2: "<21,1> Upper Case Numbers lookup 7 subtable" plusminus
EndChar

StartChar: yen
Encoding: 165 165 108
Width: 1248
Flags: W
LayerCount: 2
Fore
SplineSet
744 593 m 1,0,-1
 1125 593 l 1,1,-1
 1125 534 l 1,2,-1
 720 534 l 1,3,-1
 711 502 l 1,4,-1
 711 303 l 1,5,-1
 1125 303 l 1,6,-1
 1125 245 l 1,7,-1
 711 245 l 1,8,9
 713 114 713 114 743 80 c 128,-1,10
 773 46 773 46 883 46 c 1,11,-1
 883 0 l 1,12,-1
 363 0 l 1,13,-1
 363 46 l 1,14,-1
 383 46 l 2,15,16
 479 46 479 46 507 82 c 128,-1,17
 535 118 535 118 537 245 c 1,18,-1
 123 245 l 1,19,-1
 123 303 l 1,20,-1
 537 303 l 1,21,-1
 537 502 l 1,22,-1
 520 534 l 1,23,-1
 123 534 l 1,24,-1
 123 593 l 1,25,-1
 489 593 l 1,26,-1
 233 1075 l 2,27,28
 152 1226 152 1226 118 1267.5 c 128,-1,29
 84 1309 84 1309 0 1310 c 1,30,-1
 0 1356 l 1,31,-1
 495 1356 l 1,32,-1
 495 1310 l 1,33,34
 357 1310 357 1310 357 1241 c 0,35,36
 357 1212 357 1212 403 1128 c 2,37,-1
 694 593 l 1,38,-1
 934 1042 l 2,39,40
 994 1153 994 1153 994 1198 c 0,41,42
 994 1310 994 1310 850 1310 c 1,43,-1
 850 1356 l 1,44,-1
 1248 1356 l 1,45,-1
 1248 1310 l 1,46,47
 1166 1297 1166 1297 1115 1241.5 c 128,-1,48
 1064 1186 1064 1186 985 1040 c 2,49,-1
 744 593 l 1,0,-1
EndSplineSet
Substitution2: "<21,0> Lower Case Numbers lookup 8 subtable" yen
Substitution2: "<21,1> Upper Case Numbers lookup 7 subtable" yen
EndChar

StartChar: mu
Encoding: 181 181 109
Width: 1024
Flags: W
LayerCount: 2
Fore
SplineSet
250 -504 m 256,0,1
 208 -504 208 -504 185 -484 c 128,-1,2
 162 -464 162 -464 162 -422 c 0,3,4
 162 -397 162 -397 164 -377.5 c 128,-1,5
 166 -358 166 -358 169 -337.5 c 128,-1,6
 172 -317 172 -317 174 -290.5 c 128,-1,7
 176 -264 176 -264 176 -223 c 2,8,-1
 176 538 l 2,9,10
 176 610 176 610 174.5 652.5 c 128,-1,11
 173 695 173 695 171 711 c 0,12,13
 168 727 168 727 162 739 c 128,-1,14
 156 751 156 751 143 758.5 c 128,-1,15
 130 766 130 766 107.5 769.5 c 128,-1,16
 85 773 85 773 49 773 c 1,17,-1
 49 819 l 1,18,-1
 320 819 l 1,19,-1
 320 251 l 2,20,21
 320 165 320 165 330 129 c 0,22,23
 335 110 335 110 348.5 92.5 c 128,-1,24
 362 75 362 75 382 62 c 128,-1,25
 402 49 402 49 428 41.5 c 128,-1,26
 454 34 454 34 484 34 c 0,27,28
 538 34 538 34 585.5 59.5 c 128,-1,29
 633 85 633 85 668 129 c 128,-1,30
 703 173 703 173 723.5 230.5 c 128,-1,31
 744 288 744 288 744 353 c 2,32,-1
 744 538 l 2,33,34
 744 672 744 672 741 701 c 0,35,36
 739 715 739 715 734 728 c 128,-1,37
 729 741 729 741 716 751 c 128,-1,38
 703 761 703 761 680.5 767 c 128,-1,39
 658 773 658 773 622 773 c 2,40,-1
 601 773 l 1,41,-1
 601 819 l 1,42,-1
 887 819 l 1,43,-1
 887 282 l 2,44,45
 887 215 887 215 888 173 c 128,-1,46
 889 131 889 131 891 114 c 256,47,48
 893 97 893 97 897.5 84.5 c 128,-1,49
 902 72 902 72 913 63.5 c 128,-1,50
 924 55 924 55 944 50.5 c 128,-1,51
 964 46 964 46 997 46 c 1,52,-1
 997 0 l 1,53,54
 921 -1 921 -1 873 -9 c 128,-1,55
 825 -17 825 -17 790 -32 c 1,56,-1
 778 -32 l 1,57,58
 762 -4 762 -4 753.5 46.5 c 128,-1,59
 745 97 745 97 744 165 c 1,60,61
 697 70 697 70 625.5 18.5 c 128,-1,62
 554 -33 554 -33 472 -33 c 0,63,64
 410 -33 410 -33 360 -14 c 128,-1,65
 310 5 310 5 286 31 c 1,66,67
 290 -55 290 -55 296 -116 c 128,-1,68
 302 -177 302 -177 308 -220.5 c 128,-1,69
 314 -264 314 -264 319.5 -293 c 128,-1,70
 325 -322 325 -322 329.5 -344 c 128,-1,71
 334 -366 334 -366 337 -383.5 c 128,-1,72
 340 -401 340 -401 340 -421 c 0,73,74
 340 -464 340 -464 316 -484 c 128,-1,75
 292 -504 292 -504 250 -504 c 256,0,1
EndSplineSet
Substitution2: "<21,0> Lower Case Numbers lookup 8 subtable" mu
Substitution2: "<21,1> Upper Case Numbers lookup 7 subtable" mu
EndChar

StartChar: ordfeminine
Encoding: 170 170 110
Width: 619
Flags: W
LayerCount: 2
Fore
SplineSet
584 961 m 1,0,-1
 608 961 l 1,1,2
 601 858 601 858 500 858 c 0,3,4
 455 858 455 858 429 879.5 c 128,-1,5
 403 901 403 901 396 944 c 1,6,7
 331 901 331 901 277.5 879 c 128,-1,8
 224 857 224 857 182 857 c 0,9,10
 128 857 128 857 88.5 885.5 c 128,-1,11
 49 914 49 914 49 963 c 0,12,13
 49 1017 49 1017 104.5 1063 c 128,-1,14
 160 1109 160 1109 295 1160 c 2,15,-1
 396 1199 l 1,16,-1
 396 1223 l 2,17,18
 396 1291 396 1291 371 1323 c 128,-1,19
 346 1355 346 1355 273 1355 c 0,20,21
 175 1355 175 1355 164 1295 c 0,22,23
 154 1234 154 1234 110 1234 c 0,24,25
 70 1234 70 1234 70 1269 c 0,26,27
 70 1307 70 1307 126.5 1344 c 128,-1,28
 183 1381 183 1381 285 1381 c 0,29,30
 367 1381 367 1381 413.5 1357.5 c 128,-1,31
 460 1334 460 1334 474.5 1302.5 c 128,-1,32
 489 1271 489 1271 489 1209 c 2,33,-1
 489 1010 l 2,34,35
 489 942 489 942 497 922 c 0,36,37
 504 902 504 902 531 902 c 0,38,39
 573 902 573 902 584 961 c 1,0,-1
396 1170 m 1,40,-1
 324 1144 l 2,41,42
 157 1081 157 1081 157 986 c 0,43,44
 157 944 157 944 176.5 922.5 c 128,-1,45
 196 901 196 901 235 901 c 0,46,47
 264 901 264 901 304.5 920 c 128,-1,48
 345 939 345 939 396 976 c 1,49,-1
 396 1170 l 1,40,-1
EndSplineSet
Substitution2: "<21,0> Lower Case Numbers lookup 8 subtable" ordfeminine
Substitution2: "<21,1> Upper Case Numbers lookup 7 subtable" ordfeminine
EndChar

StartChar: ordmasculine
Encoding: 186 186 111
Width: 661
Flags: W
LayerCount: 2
Fore
SplineSet
48 1117 m 0,0,1
 48 1228 48 1228 129.5 1304.5 c 128,-1,2
 211 1381 211 1381 332 1381 c 0,3,4
 458 1381 458 1381 536.5 1302 c 128,-1,5
 615 1223 615 1223 615 1117 c 0,6,7
 615 998 615 998 534 924.5 c 128,-1,8
 453 851 453 851 332 851 c 0,9,10
 213 851 213 851 130.5 923 c 128,-1,11
 48 995 48 995 48 1117 c 0,0,1
156 1114 m 0,12,13
 156 988 156 988 199.5 933 c 128,-1,14
 243 878 243 878 332 878 c 0,15,16
 422 878 422 878 464.5 934 c 128,-1,17
 507 990 507 990 507 1114 c 0,18,19
 507 1234 507 1234 463.5 1294 c 128,-1,20
 420 1354 420 1354 332 1354 c 256,21,22
 244 1354 244 1354 200 1294 c 128,-1,23
 156 1234 156 1234 156 1114 c 0,12,13
EndSplineSet
Substitution2: "<21,0> Lower Case Numbers lookup 8 subtable" ordmasculine
Substitution2: "<21,1> Upper Case Numbers lookup 7 subtable" ordmasculine
EndChar

StartChar: ae
Encoding: 230 230 112
Width: 1280
Flags: W
LayerCount: 2
Fore
SplineSet
1224 541 m 1,0,-1
 670 541 l 1,1,-1
 670 461 l 2,2,3
 670 296 670 296 684.5 215.5 c 128,-1,4
 699 135 699 135 762.5 79 c 128,-1,5
 826 23 826 23 919 23 c 0,6,7
 1093 23 1093 23 1169 182 c 1,8,-1
 1208 168 l 1,9,10
 1169 69 1169 69 1077.5 18 c 128,-1,11
 986 -33 986 -33 877 -33 c 0,12,13
 764 -33 764 -33 683 15 c 128,-1,14
 602 63 602 63 553 158 c 1,15,16
 488 63 488 63 417.5 15 c 128,-1,17
 347 -33 347 -33 271 -33 c 0,18,19
 186 -33 186 -33 124.5 27.5 c 128,-1,20
 63 88 63 88 63 168 c 0,21,22
 63 285 63 285 171 371 c 128,-1,23
 279 457 279 457 530 541 c 1,24,-1
 530 583 l 2,25,26
 530 714 530 714 496 761.5 c 128,-1,27
 462 809 462 809 375 809 c 0,28,29
 249 809 249 809 228 720 c 0,30,31
 204 616 204 616 142 616 c 0,32,33
 78 616 78 616 78 673 c 0,34,35
 78 741 78 741 171.5 796.5 c 128,-1,36
 265 852 265 852 386 852 c 0,37,38
 460 852 460 852 524.5 827.5 c 128,-1,39
 589 803 589 803 644 753 c 1,40,41
 735 852 735 852 881 852 c 0,42,43
 1013 852 1013 852 1107.5 772.5 c 128,-1,44
 1202 693 1202 693 1224 541 c 1,0,-1
1054 583 m 1,45,46
 1052 697 1052 697 999.5 752 c 128,-1,47
 947 807 947 807 870 807 c 0,48,49
 797 807 797 807 739 752.5 c 128,-1,50
 681 698 681 698 670 583 c 1,51,-1
 1054 583 l 1,45,46
530 497 m 1,52,53
 338 432 338 432 275.5 363.5 c 128,-1,54
 213 295 213 295 213 215 c 0,55,56
 213 137 213 137 255 97.5 c 128,-1,57
 297 58 297 58 347 58 c 0,58,59
 393 58 393 58 439 94 c 128,-1,60
 485 130 485 130 530 201 c 1,61,-1
 530 497 l 1,52,53
EndSplineSet
Substitution2: "<21,0> Lower Case Numbers lookup 8 subtable" ae
Substitution2: "<21,1> Upper Case Numbers lookup 7 subtable" ae
EndChar

StartChar: oslash
Encoding: 248 248 113
Width: 1024
Flags: W
LayerCount: 2
Fore
SplineSet
200 90 m 1,0,1
 76 213 76 213 76 411 c 0,2,3
 76 598 76 598 202 725 c 128,-1,4
 328 852 328 852 512 852 c 0,5,6
 662 852 662 852 780 763 c 1,7,-1
 880 879 l 1,8,-1
 911 853 l 1,9,-1
 811 737 l 1,10,11
 949 607 949 607 949 411 c 0,12,13
 949 204 949 204 821 85.5 c 128,-1,14
 693 -33 693 -33 512 -33 c 0,15,16
 354 -33 354 -33 231 63 c 1,17,-1
 126 -59 l 1,18,-1
 94 -32 l 1,19,-1
 200 90 l 1,0,1
273 175 m 1,20,-1
 724 699 l 1,21,22
 661 806 661 806 512 806 c 0,23,24
 381 806 381 806 311.5 714.5 c 128,-1,25
 242 623 242 623 242 406 c 0,26,27
 242 258 242 258 273 175 c 1,20,-1
744 659 m 1,28,-1
 291 133 l 1,29,30
 360 13 360 13 512 13 c 0,31,32
 645 13 645 13 713.5 102.5 c 128,-1,33
 782 192 782 192 782 406 c 0,34,35
 782 560 782 560 744 659 c 1,28,-1
EndSplineSet
Substitution2: "<21,0> Lower Case Numbers lookup 8 subtable" oslash
Substitution2: "<21,1> Upper Case Numbers lookup 7 subtable" oslash
EndChar

StartChar: questiondown
Encoding: 191 191 114
Width: 811
Flags: W
LayerCount: 2
Fore
SplineSet
428 799 m 0,0,1
 428 843 428 843 459.5 874.5 c 128,-1,2
 491 906 491 906 535 906 c 0,3,4
 580 906 580 906 611.5 874.5 c 128,-1,5
 643 843 643 843 643 799 c 0,6,7
 643 754 643 754 611 722.5 c 128,-1,8
 579 691 579 691 535 691 c 256,9,10
 491 691 491 691 459.5 722.5 c 128,-1,11
 428 754 428 754 428 799 c 0,0,1
520 495 m 1,12,-1
 564 495 l 1,13,-1
 564 75 l 1,14,-1
 520 75 l 1,15,16
 479 150 479 150 411 150 c 0,17,18
 334 150 334 150 295 74 c 128,-1,19
 256 -2 256 -2 256 -155 c 0,20,21
 256 -297 256 -297 318 -361.5 c 128,-1,22
 380 -426 380 -426 460 -426 c 0,23,24
 558 -426 558 -426 603 -327 c 0,25,26
 627 -276 627 -276 668 -276 c 0,27,28
 715 -276 715 -276 715 -327 c 0,29,30
 715 -382 715 -382 636 -425.5 c 128,-1,31
 557 -469 557 -469 453 -469 c 0,32,33
 283 -469 283 -469 192.5 -356.5 c 128,-1,34
 102 -244 102 -244 102 -96 c 0,35,36
 102 37 102 37 180.5 123 c 128,-1,37
 259 209 259 209 372 209 c 0,38,39
 461 209 461 209 520 154 c 1,40,-1
 520 495 l 1,12,-1
EndSplineSet
Substitution2: "<21,0> Lower Case Numbers lookup 8 subtable" questiondown
Substitution2: "<21,1> Upper Case Numbers lookup 7 subtable" questiondown
EndChar

StartChar: exclamdown
Encoding: 161 161 115
Width: 512
Flags: W
LayerCount: 2
Fore
SplineSet
143 806 m 256,0,1
 143 850 143 850 174.5 881.5 c 128,-1,2
 206 913 206 913 250 913 c 0,3,4
 295 913 295 913 326.5 881.5 c 128,-1,5
 358 850 358 850 358 806 c 0,6,7
 358 761 358 761 326 730 c 128,-1,8
 294 699 294 699 250 699 c 256,9,10
 206 699 206 699 174.5 730.5 c 128,-1,11
 143 762 143 762 143 806 c 256,0,1
228 495 m 1,12,-1
 271 495 l 1,13,-1
 330 -214 l 2,14,15
 338 -313 338 -313 338 -337 c 0,16,17
 338 -396 338 -396 311.5 -429 c 128,-1,18
 285 -462 285 -462 249 -462 c 0,19,20
 214 -462 214 -462 187.5 -429 c 128,-1,21
 161 -396 161 -396 161 -337 c 0,22,23
 161 -301 161 -301 169 -214 c 2,24,-1
 228 495 l 1,12,-1
EndSplineSet
Substitution2: "<21,0> Lower Case Numbers lookup 8 subtable" exclamdown
Substitution2: "<21,1> Upper Case Numbers lookup 7 subtable" exclamdown
EndChar

StartChar: logicalnot
Encoding: 172 172 116
Width: 1365
Flags: W
LayerCount: 2
Fore
SplineSet
142 953 m 1,0,-1
 1222 953 l 1,1,-1
 1222 357 l 1,2,-1
 1116 357 l 1,3,-1
 1116 845 l 1,4,-1
 142 845 l 1,5,-1
 142 953 l 1,0,-1
EndSplineSet
Substitution2: "<21,0> Lower Case Numbers lookup 8 subtable" logicalnot
Substitution2: "<21,1> Upper Case Numbers lookup 7 subtable" logicalnot
EndChar

StartChar: guillemotleft
Encoding: 171 171 117
Width: 960
Flags: W
LayerCount: 2
Fore
SplineSet
67 437 m 1,0,-1
 438 819 l 1,1,-1
 495 819 l 1,2,-1
 261 437 l 1,3,-1
 495 46 l 1,4,-1
 438 46 l 1,5,-1
 67 437 l 1,0,-1
495 437 m 1,6,-1
 866 819 l 1,7,-1
 919 819 l 1,8,-1
 688 437 l 1,9,-1
 919 46 l 1,10,-1
 866 46 l 1,11,-1
 495 437 l 1,6,-1
EndSplineSet
Substitution2: "<21,0> Lower Case Numbers lookup 8 subtable" guillemotleft
Substitution2: "<21,1> Upper Case Numbers lookup 7 subtable" guillemotleft
EndChar

StartChar: guillemotright
Encoding: 187 187 118
Width: 960
Flags: W
LayerCount: 2
Fore
SplineSet
901 437 m 1,0,-1
 530 46 l 1,1,-1
 473 46 l 1,2,-1
 707 437 l 1,3,-1
 473 819 l 1,4,-1
 530 819 l 1,5,-1
 901 437 l 1,0,-1
473 437 m 1,6,-1
 102 46 l 1,7,-1
 49 46 l 1,8,-1
 280 437 l 1,9,-1
 49 819 l 1,10,-1
 102 819 l 1,11,-1
 473 437 l 1,6,-1
EndSplineSet
Substitution2: "<21,0> Lower Case Numbers lookup 8 subtable" guillemotright
Substitution2: "<21,1> Upper Case Numbers lookup 7 subtable" guillemotright
EndChar

StartChar: divide
Encoding: 247 247 123
Width: 1365
Flags: W
LayerCount: 2
Fore
SplineSet
607 1075 m 0,0,1
 607 1103 607 1103 628 1123 c 128,-1,2
 649 1143 649 1143 680 1143 c 0,3,4
 709 1143 709 1143 730 1122 c 128,-1,5
 751 1101 751 1101 751 1071 c 0,6,7
 751 1042 751 1042 730.5 1020 c 128,-1,8
 710 998 710 998 680 998 c 256,9,10
 650 998 650 998 628.5 1020.5 c 128,-1,11
 607 1043 607 1043 607 1075 c 0,0,1
142 707 m 1,12,-1
 1222 707 l 1,13,-1
 1222 603 l 1,14,-1
 142 603 l 1,15,-1
 142 707 l 1,12,-1
753 247 m 256,16,17
 753 217 753 217 731.5 196 c 128,-1,18
 710 175 710 175 680 175 c 256,19,20
 650 175 650 175 628.5 196 c 128,-1,21
 607 217 607 217 607 247 c 256,22,23
 607 277 607 277 628.5 298.5 c 128,-1,24
 650 320 650 320 680 320 c 256,25,26
 710 320 710 320 731.5 298.5 c 128,-1,27
 753 277 753 277 753 247 c 256,16,17
EndSplineSet
Substitution2: "<21,0> Lower Case Numbers lookup 8 subtable" divide
Substitution2: "<21,1> Upper Case Numbers lookup 7 subtable" divide
EndChar

StartChar: periodcentered
Encoding: 183 183 125
Width: 683
Flags: W
LayerCount: 2
Fore
SplineSet
521 688 m 0,0,1
 521 721 521 721 544.5 746 c 128,-1,2
 568 771 568 771 603 771 c 0,3,4
 637 771 637 771 661 746.5 c 128,-1,5
 685 722 685 722 685 688 c 0,6,7
 685 653 685 653 661 628.5 c 128,-1,8
 637 604 637 604 603 604 c 256,9,10
 569 604 569 604 545 629 c 128,-1,11
 521 654 521 654 521 688 c 0,0,1
EndSplineSet
Substitution2: "<21,0> Lower Case Numbers lookup 8 subtable" periodcentered
Substitution2: "<21,1> Upper Case Numbers lookup 7 subtable" periodcentered
EndChar

StartChar: macron
Encoding: 175 175 141
Width: 1024
Flags: W
LayerCount: 2
Fore
SplineSet
-12 1612 m 1,0,-1
 1036 1612 l 1,1,-1
 1036 1510 l 1,2,-1
 -12 1510 l 1,3,-1
 -12 1612 l 1,0,-1
EndSplineSet
Substitution2: "<21,0> Lower Case Numbers lookup 8 subtable" macron
Substitution2: "<21,1> Upper Case Numbers lookup 7 subtable" macron
EndChar

StartChar: cedilla
Encoding: 184 184 142
Width: 683
Flags: W
LayerCount: 2
Fore
SplineSet
350 15 m 1,0,-1
 328 -119 l 1,1,2
 425 -119 425 -119 478.5 -168 c 128,-1,3
 532 -217 532 -217 532 -288 c 0,4,5
 532 -379 532 -379 458 -431.5 c 128,-1,6
 384 -484 384 -484 270 -484 c 0,7,8
 181 -484 181 -484 114 -459 c 1,9,-1
 128 -419 l 1,10,11
 187 -438 187 -438 248 -438 c 0,12,13
 321 -438 321 -438 366.5 -406 c 128,-1,14
 412 -374 412 -374 412 -318 c 0,15,16
 412 -269 412 -269 373 -235.5 c 128,-1,17
 334 -202 334 -202 264 -202 c 1,18,-1
 306 15 l 1,19,-1
 350 15 l 1,0,-1
EndSplineSet
Substitution2: "<21,0> Lower Case Numbers lookup 8 subtable" cedilla
Substitution2: "<21,1> Upper Case Numbers lookup 7 subtable" cedilla
EndChar

StartChar: currency
Encoding: 164 164 143
Width: 1365
Flags: W
LayerCount: 2
Fore
SplineSet
205 1057 m 1,0,-1
 279 1133 l 1,1,-1
 407 1006 l 1,2,3
 467 1055 467 1055 536 1079 c 128,-1,4
 605 1103 605 1103 682 1103 c 0,5,6
 836 1103 836 1103 960 1006 c 1,7,-1
 1087 1133 l 1,8,-1
 1160 1057 l 1,9,-1
 1034 931 l 1,10,11
 1131 804 1131 804 1131 647 c 0,12,13
 1131 494 1131 494 1034 379 c 1,14,-1
 1160 253 l 1,15,-1
 1087 179 l 1,16,-1
 960 304 l 1,17,18
 898 256 898 256 828.5 232 c 128,-1,19
 759 208 759 208 682 208 c 0,20,21
 523 208 523 208 407 304 c 1,22,-1
 280 179 l 1,23,-1
 205 253 l 1,24,-1
 333 379 l 1,25,26
 237 519 237 519 237 662 c 0,27,28
 237 802 237 802 333 931 c 1,29,-1
 205 1057 l 1,0,-1
1025 654 m 0,30,31
 1025 796 1025 796 925 896 c 128,-1,32
 825 996 825 996 684 996 c 0,33,34
 544 996 544 996 443.5 895.5 c 128,-1,35
 343 795 343 795 343 654 c 256,36,37
 343 513 343 513 443 413 c 128,-1,38
 543 313 543 313 684 313 c 256,39,40
 825 313 825 313 925 413.5 c 128,-1,41
 1025 514 1025 514 1025 654 c 0,30,31
EndSplineSet
Substitution2: "<21,0> Lower Case Numbers lookup 8 subtable" currency
Substitution2: "<21,1> Upper Case Numbers lookup 7 subtable" currency
EndChar

StartChar: brokenbar
Encoding: 166 166 144
Width: 1045
Flags: W
LayerCount: 2
Fore
SplineSet
468 1375 m 1,0,-1
 577 1375 l 1,1,-1
 577 654 l 1,2,-1
 468 654 l 1,3,-1
 468 1375 l 1,0,-1
468 217 m 1,4,-1
 577 217 l 1,5,-1
 577 -504 l 1,6,-1
 468 -504 l 1,7,-1
 468 217 l 1,4,-1
EndSplineSet
Substitution2: "<21,0> Lower Case Numbers lookup 8 subtable" brokenbar
Substitution2: "<21,1> Upper Case Numbers lookup 7 subtable" brokenbar
EndChar

StartChar: Eth
Encoding: 208 208 145
Width: 1557
Flags: W
LayerCount: 2
Fore
SplineSet
270 648 m 1,0,-1
 39 648 l 1,1,-1
 39 697 l 1,2,-1
 270 697 l 1,3,-1
 270 1007 l 2,4,5
 270 1169 270 1169 260.5 1216.5 c 128,-1,6
 251 1264 251 1264 220.5 1281.5 c 128,-1,7
 190 1299 190 1299 87 1299 c 2,8,-1
 47 1299 l 1,9,-1
 47 1345 l 1,10,-1
 270 1356 l 2,11,12
 550 1370 550 1370 646 1370 c 0,13,14
 949 1370 949 1370 1118 1278 c 128,-1,15
 1287 1186 1287 1186 1369.5 1028.5 c 128,-1,16
 1452 871 1452 871 1452 665 c 0,17,18
 1452 516 1452 516 1407 392.5 c 128,-1,19
 1362 269 1362 269 1283 187.5 c 128,-1,20
 1204 106 1204 106 1100.5 63.5 c 128,-1,21
 997 21 997 21 904.5 10.5 c 128,-1,22
 812 0 812 0 643 0 c 2,23,-1
 41 0 l 1,24,-1
 41 46 l 1,25,-1
 97 46 l 2,26,27
 184 46 184 46 217.5 68 c 128,-1,28
 251 90 251 90 260.5 136.5 c 128,-1,29
 270 183 270 183 270 353 c 2,30,-1
 270 648 l 1,0,-1
465 648 m 1,31,-1
 465 411 l 2,32,33
 465 210 465 210 473 152 c 128,-1,34
 481 94 481 94 518 70.5 c 128,-1,35
 555 47 555 47 676 47 c 0,36,37
 854 47 854 47 967.5 95.5 c 128,-1,38
 1081 144 1081 144 1157.5 286.5 c 128,-1,39
 1234 429 1234 429 1234 650 c 0,40,41
 1234 822 1234 822 1189.5 957 c 128,-1,42
 1145 1092 1145 1092 1062.5 1176.5 c 128,-1,43
 980 1261 980 1261 878.5 1291.5 c 128,-1,44
 777 1322 777 1322 620 1322 c 0,45,46
 544 1322 544 1322 465 1317 c 1,47,-1
 465 697 l 1,48,-1
 810 697 l 1,49,-1
 810 648 l 1,50,-1
 465 648 l 1,31,-1
EndSplineSet
Substitution2: "<21,0> Lower Case Numbers lookup 8 subtable" Eth
Substitution2: "<21,1> Upper Case Numbers lookup 7 subtable" Eth
EndChar

StartChar: eth
Encoding: 240 240 146
Width: 1024
Flags: W
LayerCount: 2
Fore
SplineSet
265 1303 m 1,0,-1
 341 1381 l 1,1,2
 421 1340 421 1340 586 1212 c 1,3,-1
 822 1333 l 1,4,-1
 850 1285 l 1,5,-1
 626 1167 l 1,6,7
 748 1067 748 1067 848.5 866.5 c 128,-1,8
 949 666 949 666 949 438 c 0,9,10
 949 221 949 221 817 98 c 128,-1,11
 685 -25 685 -25 517 -25 c 0,12,13
 335 -25 335 -25 205 92.5 c 128,-1,14
 75 210 75 210 75 414 c 0,15,16
 75 606 75 606 201 732 c 128,-1,17
 327 858 327 858 507 858 c 0,18,19
 654 858 654 858 738 767 c 1,20,21
 675 954 675 954 511 1112 c 1,22,-1
 221 961 l 1,23,-1
 195 1008 l 1,24,-1
 470 1152 l 1,25,26
 377 1234 377 1234 265 1303 c 1,0,-1
241 403 m 0,27,28
 241 211 241 211 307.5 115 c 128,-1,29
 374 19 374 19 506 19 c 0,30,31
 622 19 622 19 701.5 98 c 128,-1,32
 781 177 781 177 781 442 c 0,33,34
 781 813 781 813 514 813 c 0,35,36
 378 813 378 813 309.5 710.5 c 128,-1,37
 241 608 241 608 241 403 c 0,27,28
EndSplineSet
Substitution2: "<21,0> Lower Case Numbers lookup 8 subtable" eth
Substitution2: "<21,1> Upper Case Numbers lookup 7 subtable" eth
EndChar

StartChar: Thorn
Encoding: 222 222 149
Width: 1152
Flags: W
LayerCount: 2
Fore
SplineSet
688 1356 m 1,0,-1
 688 1310 l 1,1,-1
 643 1310 l 2,2,3
 556 1310 556 1310 523.5 1288.5 c 128,-1,4
 491 1267 491 1267 482 1227 c 128,-1,5
 473 1187 473 1187 471 1056 c 2,6,-1
 471 1043 l 1,7,-1
 555 1044 l 2,8,9
 765 1044 765 1044 878.5 1010.5 c 128,-1,10
 992 977 992 977 1064.5 893.5 c 128,-1,11
 1137 810 1137 810 1137 681 c 0,12,13
 1137 547 1137 547 1069 458 c 128,-1,14
 1001 369 1001 369 898 341 c 128,-1,15
 795 313 795 313 620 313 c 2,16,-1
 471 313 l 1,17,18
 471 136 471 136 498.5 91 c 128,-1,19
 526 46 526 46 643 46 c 2,20,-1
 688 46 l 1,21,-1
 688 0 l 1,22,-1
 67 0 l 1,23,-1
 67 46 l 1,24,-1
 103 46 l 2,25,26
 190 46 190 46 223.5 68 c 128,-1,27
 257 90 257 90 266 136.5 c 128,-1,28
 275 183 275 183 275 353 c 2,29,-1
 275 1018 l 2,30,31
 275 1180 275 1180 266 1227 c 128,-1,32
 257 1274 257 1274 226 1292 c 128,-1,33
 195 1310 195 1310 92 1310 c 2,34,-1
 67 1310 l 1,35,-1
 67 1356 l 1,36,-1
 688 1356 l 1,0,-1
471 364 m 1,37,-1
 568 364 l 2,38,39
 685 364 685 364 757 387.5 c 128,-1,40
 829 411 829 411 877 486 c 128,-1,41
 925 561 925 561 925 671 c 0,42,43
 925 839 925 839 842.5 917.5 c 128,-1,44
 760 996 760 996 575 996 c 0,45,46
 507 996 507 996 471 992 c 1,47,-1
 471 364 l 1,37,-1
EndSplineSet
Substitution2: "<21,0> Lower Case Numbers lookup 8 subtable" Thorn
Substitution2: "<21,1> Upper Case Numbers lookup 7 subtable" Thorn
EndChar

StartChar: thorn
Encoding: 254 254 150
Width: 1067
Flags: W
LayerCount: 2
Fore
SplineSet
271 1375 m 1,0,-1
 297 1375 l 1,1,-1
 297 717 l 1,2,3
 361 785 361 785 434.5 818.5 c 128,-1,4
 508 852 508 852 590 852 c 0,5,6
 760 852 760 852 873 732.5 c 128,-1,7
 986 613 986 613 986 417 c 0,8,9
 986 225 986 225 872.5 96 c 128,-1,10
 759 -33 759 -33 574 -33 c 0,11,12
 498 -33 498 -33 428.5 -2.5 c 128,-1,13
 359 28 359 28 297 88 c 1,14,-1
 297 -223 l 2,15,16
 297 -365 297 -365 302.5 -396 c 128,-1,17
 308 -427 308 -427 334 -442.5 c 128,-1,18
 360 -458 360 -458 431 -458 c 1,19,-1
 431 -504 l 1,20,-1
 3 -504 l 1,21,-1
 3 -458 l 1,22,-1
 33 -458 l 2,23,24
 104 -458 104 -458 125.5 -437.5 c 128,-1,25
 147 -417 147 -417 150.5 -388.5 c 128,-1,26
 154 -360 154 -360 154 -223 c 2,27,-1
 154 1044 l 2,28,29
 154 1175 154 1175 150.5 1209 c 128,-1,30
 147 1243 147 1243 122 1261.5 c 128,-1,31
 97 1280 97 1280 33 1280 c 2,32,-1
 3 1280 l 1,33,-1
 3 1325 l 1,34,35
 116 1332 116 1332 271 1375 c 1,0,-1
297 154 m 1,36,37
 351 88 351 88 411.5 54.5 c 128,-1,38
 472 21 472 21 539 21 c 0,39,40
 652 21 652 21 736 118 c 128,-1,41
 820 215 820 215 820 427 c 0,42,43
 820 611 820 611 739 702 c 128,-1,44
 658 793 658 793 546 793 c 0,45,46
 477 793 477 793 415 758 c 128,-1,47
 353 723 353 723 297 652 c 1,48,-1
 297 154 l 1,36,37
EndSplineSet
Substitution2: "<21,0> Lower Case Numbers lookup 8 subtable" thorn
Substitution2: "<21,1> Upper Case Numbers lookup 7 subtable" thorn
EndChar

StartChar: multiply
Encoding: 215 215 151
Width: 1365
Flags: W
LayerCount: 2
Fore
SplineSet
191 1071 m 1,0,-1
 266 1147 l 1,1,-1
 684 729 l 1,2,-1
 1102 1147 l 1,3,-1
 1177 1071 l 1,4,-1
 760 652 l 1,5,-1
 1173 239 l 1,6,-1
 1097 163 l 1,7,-1
 684 577 l 1,8,-1
 268 163 l 1,9,-1
 192 239 l 1,10,-1
 608 652 l 1,11,-1
 191 1071 l 1,0,-1
EndSplineSet
Substitution2: "<21,0> Lower Case Numbers lookup 8 subtable" multiply
Substitution2: "<21,1> Upper Case Numbers lookup 7 subtable" multiply
EndChar

StartChar: onesuperior
Encoding: 185 185 152
Width: 619
Flags: W
LayerCount: 2
Fore
SplineSet
369 1343 m 1,0,-1
 369 795 l 2,1,2
 369 709 369 709 376.5 695 c 128,-1,3
 384 681 384 681 428 681 c 2,4,-1
 463 681 l 1,5,-1
 463 645 l 1,6,-1
 174 645 l 1,7,-1
 174 681 l 1,8,-1
 206 681 l 2,9,10
 250 681 250 681 257.5 695 c 128,-1,11
 265 709 265 709 265 795 c 2,12,-1
 265 1158 l 2,13,14
 265 1243 265 1243 258 1257 c 128,-1,15
 251 1271 251 1271 206 1271 c 2,16,-1
 168 1271 l 1,17,-1
 168 1308 l 1,18,19
 224 1309 224 1309 269 1319 c 128,-1,20
 314 1329 314 1329 318 1337 c 0,21,22
 320 1343 320 1343 326 1343 c 2,23,-1
 369 1343 l 1,0,-1
EndSplineSet
Substitution2: "<21,0> Lower Case Numbers lookup 8 subtable" onesuperior
Substitution2: "<21,1> Upper Case Numbers lookup 7 subtable" onesuperior
EndChar

StartChar: twosuperior
Encoding: 178 178 153
Width: 619
Flags: W
LayerCount: 2
Fore
SplineSet
64 645 m 1,0,-1
 64 685 l 1,1,2
 428 957 428 957 428 1142 c 0,3,4
 428 1223 428 1223 391 1263 c 128,-1,5
 354 1303 354 1303 279 1303 c 0,6,7
 218 1303 218 1303 184.5 1268 c 128,-1,8
 151 1233 151 1233 151 1191 c 0,9,10
 151 1141 151 1141 202 1114 c 0,11,12
 216 1106 216 1106 216 1098 c 0,13,14
 216 1088 216 1088 193.5 1069 c 128,-1,15
 171 1050 171 1050 151 1050 c 0,16,17
 122 1050 122 1050 96.5 1086.5 c 128,-1,18
 71 1123 71 1123 71 1167 c 0,19,20
 71 1243 71 1243 142.5 1293 c 128,-1,21
 214 1343 214 1343 307 1343 c 0,22,23
 406 1343 406 1343 478 1291 c 128,-1,24
 550 1239 550 1239 550 1145 c 0,25,26
 550 1066 550 1066 469.5 974.5 c 128,-1,27
 389 883 389 883 177 719 c 1,28,-1
 543 719 l 1,29,-1
 505 592 l 1,30,-1
 455 592 l 1,31,32
 460 622 460 622 460 628 c 0,33,34
 460 645 460 645 423 645 c 2,35,-1
 64 645 l 1,0,-1
EndSplineSet
Substitution2: "<21,0> Lower Case Numbers lookup 8 subtable" twosuperior
Substitution2: "<21,1> Upper Case Numbers lookup 7 subtable" twosuperior
EndChar

StartChar: threesuperior
Encoding: 179 179 154
Width: 619
Flags: W
LayerCount: 2
Fore
SplineSet
351 1034 m 1,0,1
 448 1034 448 1034 500.5 980 c 128,-1,2
 553 926 553 926 553 847 c 0,3,4
 553 752 553 752 476 690 c 128,-1,5
 399 628 399 628 277 628 c 0,6,7
 193 628 193 628 134 662 c 128,-1,8
 75 696 75 696 75 731 c 0,9,10
 75 773 75 773 125 773 c 0,11,12
 166 773 166 773 182 727 c 0,13,14
 205 664 205 664 276 664 c 0,15,16
 354 664 354 664 392.5 711 c 128,-1,17
 431 758 431 758 431 851 c 0,18,19
 431 924 431 924 400 961.5 c 128,-1,20
 369 999 369 999 327 999 c 0,21,22
 291 999 291 999 257 968 c 0,23,24
 235 949 235 949 219 949 c 0,25,26
 190 949 190 949 190 972 c 0,27,28
 190 986 190 986 259 1026 c 0,29,30
 348 1078 348 1078 376 1114 c 0,31,32
 404 1149 404 1149 404 1202 c 0,33,34
 404 1254 404 1254 378.5 1279.5 c 128,-1,35
 353 1305 353 1305 301 1305 c 0,36,37
 255 1305 255 1305 217 1279 c 128,-1,38
 179 1253 179 1253 179 1208 c 0,39,40
 179 1169 179 1169 208 1147 c 0,41,42
 219 1139 219 1139 219 1134 c 0,43,44
 219 1126 219 1126 197 1115.5 c 128,-1,45
 175 1105 175 1105 159 1105 c 0,46,47
 135 1105 135 1105 116 1130.5 c 128,-1,48
 97 1156 97 1156 97 1188 c 0,49,50
 97 1245 97 1245 155 1294 c 128,-1,51
 213 1343 213 1343 317 1343 c 0,52,53
 412 1343 412 1343 469 1304.5 c 128,-1,54
 526 1266 526 1266 526 1212 c 0,55,56
 526 1135 526 1135 406 1066 c 2,57,-1
 351 1034 l 1,0,1
EndSplineSet
Substitution2: "<21,0> Lower Case Numbers lookup 8 subtable" threesuperior
Substitution2: "<21,1> Upper Case Numbers lookup 7 subtable" threesuperior
EndChar

StartChar: onehalf
Encoding: 189 189 155
Width: 1792
Flags: W
LayerCount: 2
Fore
SplineSet
578 0 m 1,0,-1
 518 0 l 1,1,-1
 1213 1310 l 1,2,-1
 1274 1310 l 1,3,-1
 578 0 l 1,0,-1
409 1343 m 1,4,-1
 409 795 l 2,5,6
 409 709 409 709 416.5 695 c 128,-1,7
 424 681 424 681 468 681 c 2,8,-1
 503 681 l 1,9,-1
 503 645 l 1,10,-1
 214 645 l 1,11,-1
 214 681 l 1,12,-1
 246 681 l 2,13,14
 290 681 290 681 297.5 695 c 128,-1,15
 305 709 305 709 305 795 c 2,16,-1
 305 1158 l 2,17,18
 305 1243 305 1243 298 1257 c 128,-1,19
 291 1271 291 1271 246 1271 c 2,20,-1
 208 1271 l 1,21,-1
 208 1308 l 1,22,23
 264 1309 264 1309 309 1319 c 128,-1,24
 354 1329 354 1329 358 1337 c 0,25,26
 360 1343 360 1343 366 1343 c 2,27,-1
 409 1343 l 1,4,-1
1196 1 m 1,28,-1
 1196 41 l 1,29,30
 1560 313 1560 313 1560 498 c 0,31,32
 1560 579 1560 579 1523 619 c 128,-1,33
 1486 659 1486 659 1411 659 c 0,34,35
 1350 659 1350 659 1316.5 624 c 128,-1,36
 1283 589 1283 589 1283 547 c 0,37,38
 1283 497 1283 497 1334 470 c 0,39,40
 1348 462 1348 462 1348 454 c 0,41,42
 1348 444 1348 444 1325.5 425 c 128,-1,43
 1303 406 1303 406 1283 406 c 0,44,45
 1254 406 1254 406 1228.5 442.5 c 128,-1,46
 1203 479 1203 479 1203 523 c 0,47,48
 1203 599 1203 599 1274.5 649 c 128,-1,49
 1346 699 1346 699 1439 699 c 0,50,51
 1538 699 1538 699 1610 647 c 128,-1,52
 1682 595 1682 595 1682 501 c 0,53,54
 1682 422 1682 422 1601.5 330.5 c 128,-1,55
 1521 239 1521 239 1309 75 c 1,56,-1
 1675 75 l 1,57,-1
 1637 -52 l 1,58,-1
 1587 -52 l 1,59,60
 1592 -22 1592 -22 1592 -16 c 0,61,62
 1592 1 1592 1 1555 1 c 2,63,-1
 1196 1 l 1,28,-1
EndSplineSet
Substitution2: "<21,0> Lower Case Numbers lookup 8 subtable" onehalf
Substitution2: "<21,1> Upper Case Numbers lookup 7 subtable" onehalf
EndChar

StartChar: onequarter
Encoding: 188 188 156
Width: 1792
Flags: W
LayerCount: 2
Fore
SplineSet
578 0 m 1,0,-1
 518 0 l 1,1,-1
 1213 1310 l 1,2,-1
 1274 1310 l 1,3,-1
 578 0 l 1,0,-1
409 1343 m 1,4,-1
 409 795 l 2,5,6
 409 709 409 709 416.5 695 c 128,-1,7
 424 681 424 681 468 681 c 2,8,-1
 503 681 l 1,9,-1
 503 645 l 1,10,-1
 214 645 l 1,11,-1
 214 681 l 1,12,-1
 246 681 l 2,13,14
 290 681 290 681 297.5 695 c 128,-1,15
 305 709 305 709 305 795 c 2,16,-1
 305 1158 l 2,17,18
 305 1243 305 1243 298 1257 c 128,-1,19
 291 1271 291 1271 246 1271 c 2,20,-1
 208 1271 l 1,21,-1
 208 1308 l 1,22,23
 264 1309 264 1309 309 1319 c 128,-1,24
 354 1329 354 1329 358 1337 c 0,25,26
 360 1343 360 1343 366 1343 c 2,27,-1
 409 1343 l 1,4,-1
1456 231 m 1,28,-1
 1166 231 l 1,29,-1
 1166 269 l 1,30,-1
 1508 699 l 1,31,-1
 1565 699 l 1,32,-1
 1565 275 l 1,33,-1
 1607 275 l 2,34,35
 1654 275 1654 275 1659 278 c 128,-1,36
 1664 281 1664 281 1683 323 c 1,37,-1
 1732 323 l 1,38,-1
 1716 231 l 1,39,-1
 1565 231 l 1,40,-1
 1565 151 l 2,41,42
 1565 65 1565 65 1572 51 c 128,-1,43
 1579 37 1579 37 1624 37 c 2,44,-1
 1646 37 l 1,45,-1
 1646 1 l 1,46,-1
 1364 1 l 1,47,-1
 1364 37 l 1,48,-1
 1397 37 l 2,49,50
 1442 37 1442 37 1449 51 c 128,-1,51
 1456 65 1456 65 1456 151 c 2,52,-1
 1456 231 l 1,28,-1
1456 275 m 1,53,-1
 1456 561 l 1,54,-1
 1229 275 l 1,55,-1
 1456 275 l 1,53,-1
EndSplineSet
Substitution2: "<21,0> Lower Case Numbers lookup 8 subtable" onequarter
Substitution2: "<21,1> Upper Case Numbers lookup 7 subtable" onequarter
EndChar

StartChar: threequarters
Encoding: 190 190 157
Width: 1792
Flags: W
LayerCount: 2
Fore
SplineSet
578 0 m 1,0,-1
 518 0 l 1,1,-1
 1213 1310 l 1,2,-1
 1274 1310 l 1,3,-1
 578 0 l 1,0,-1
391 1034 m 1,4,5
 488 1034 488 1034 540.5 980 c 128,-1,6
 593 926 593 926 593 847 c 0,7,8
 593 752 593 752 516 690 c 128,-1,9
 439 628 439 628 317 628 c 0,10,11
 233 628 233 628 174 662 c 128,-1,12
 115 696 115 696 115 731 c 0,13,14
 115 773 115 773 165 773 c 0,15,16
 206 773 206 773 222 727 c 0,17,18
 245 664 245 664 316 664 c 0,19,20
 394 664 394 664 432.5 711 c 128,-1,21
 471 758 471 758 471 851 c 0,22,23
 471 924 471 924 440 961.5 c 128,-1,24
 409 999 409 999 367 999 c 0,25,26
 331 999 331 999 297 968 c 0,27,28
 275 949 275 949 259 949 c 0,29,30
 230 949 230 949 230 972 c 0,31,32
 230 986 230 986 299 1026 c 0,33,34
 388 1078 388 1078 416 1114 c 0,35,36
 444 1149 444 1149 444 1202 c 0,37,38
 444 1254 444 1254 418.5 1279.5 c 128,-1,39
 393 1305 393 1305 341 1305 c 0,40,41
 295 1305 295 1305 257 1279 c 128,-1,42
 219 1253 219 1253 219 1208 c 0,43,44
 219 1169 219 1169 248 1147 c 0,45,46
 259 1139 259 1139 259 1134 c 0,47,48
 259 1126 259 1126 237 1115.5 c 128,-1,49
 215 1105 215 1105 199 1105 c 0,50,51
 175 1105 175 1105 156 1130.5 c 128,-1,52
 137 1156 137 1156 137 1188 c 0,53,54
 137 1245 137 1245 195 1294 c 128,-1,55
 253 1343 253 1343 357 1343 c 0,56,57
 452 1343 452 1343 509 1304.5 c 128,-1,58
 566 1266 566 1266 566 1212 c 0,59,60
 566 1135 566 1135 446 1066 c 2,61,-1
 391 1034 l 1,4,5
1456 231 m 1,62,-1
 1166 231 l 1,63,-1
 1166 269 l 1,64,-1
 1508 699 l 1,65,-1
 1565 699 l 1,66,-1
 1565 275 l 1,67,-1
 1607 275 l 2,68,69
 1654 275 1654 275 1659 278 c 128,-1,70
 1664 281 1664 281 1683 323 c 1,71,-1
 1732 323 l 1,72,-1
 1716 231 l 1,73,-1
 1565 231 l 1,74,-1
 1565 151 l 2,75,76
 1565 65 1565 65 1572 51 c 128,-1,77
 1579 37 1579 37 1624 37 c 2,78,-1
 1646 37 l 1,79,-1
 1646 1 l 1,80,-1
 1364 1 l 1,81,-1
 1364 37 l 1,82,-1
 1397 37 l 2,83,84
 1442 37 1442 37 1449 51 c 128,-1,85
 1456 65 1456 65 1456 151 c 2,86,-1
 1456 231 l 1,62,-1
1456 275 m 1,87,-1
 1456 561 l 1,88,-1
 1229 275 l 1,89,-1
 1456 275 l 1,87,-1
EndSplineSet
Substitution2: "<21,0> Lower Case Numbers lookup 8 subtable" threequarters
Substitution2: "<21,1> Upper Case Numbers lookup 7 subtable" threequarters
EndChar

